<svg width="654" height="574" viewBox="0 0 654 574" fill="none" xmlns="http://www.w3.org/2000/svg">
<g filter="url(#filter0_d_907_2230)">
<path d="M478.27 16.4051L66.3563 16.4051C43.5159 16.4051 25 34.921 25 57.7614L25 359.853C25 382.693 43.5159 401.209 66.3563 401.209L478.27 401.209C501.11 401.209 519.626 382.693 519.626 359.853L519.626 57.7614C519.626 34.921 501.11 16.4051 478.27 16.4051Z" fill="url(#paint0_linear_907_2230)"/>
</g>
<g style="mix-blend-mode:soft-light" opacity="0.9">
<path d="M478.27 16.4051L179.39 16.4051L519.626 331.608L519.626 57.7792C519.626 34.9276 501.104 16.4228 478.27 16.4228L478.27 16.4051Z" fill="white"/>
</g>
<g style="mix-blend-mode:soft-light" opacity="0.9">
<path d="M107.322 126.564L57.9821 126.564C55.699 126.564 53.8483 128.415 53.8483 130.698L53.8483 167.122C53.8483 169.406 55.699 171.256 57.9821 171.256L107.322 171.256C109.605 171.256 111.456 169.406 111.456 167.122L111.456 130.698C111.456 128.415 109.605 126.564 107.322 126.564Z" fill="white"/>
</g>
<g style="mix-blend-mode:soft-light" opacity="0.9">
<path d="M170.537 126.564L121.196 126.564C118.913 126.564 117.063 128.415 117.063 130.698L117.063 167.122C117.063 169.406 118.913 171.256 121.196 171.256L170.537 171.256C172.82 171.256 174.671 169.406 174.671 167.122L174.671 130.698C174.671 128.415 172.82 126.564 170.537 126.564Z" fill="white"/>
</g>
<g style="mix-blend-mode:soft-light" opacity="0.9">
<path d="M233.769 126.564L184.429 126.564C182.146 126.564 180.295 128.415 180.295 130.698L180.295 167.122C180.295 169.406 182.146 171.256 184.429 171.256L233.769 171.256C236.052 171.256 237.903 169.406 237.903 167.122L237.903 130.698C237.903 128.415 236.052 126.564 233.769 126.564Z" fill="white"/>
</g>
<g style="mix-blend-mode:soft-light" opacity="0.9">
<path d="M296.983 126.564L247.643 126.564C245.36 126.564 243.509 128.415 243.509 130.698L243.509 167.122C243.509 169.406 245.36 171.256 247.643 171.256L296.983 171.256C299.266 171.256 301.117 169.406 301.117 167.122L301.117 130.698C301.117 128.415 299.266 126.564 296.983 126.564Z" fill="white"/>
</g>
<g style="mix-blend-mode:soft-light" opacity="0.9">
<path d="M360.198 126.564L310.857 126.564C308.574 126.564 306.724 128.415 306.724 130.698L306.724 167.122C306.724 169.406 308.574 171.256 310.857 171.256L360.198 171.256C362.481 171.256 364.332 169.406 364.332 167.122L364.332 130.698C364.332 128.415 362.481 126.564 360.198 126.564Z" fill="white"/>
</g>
<g style="mix-blend-mode:soft-light" opacity="0.9">
<path d="M423.412 126.564L374.072 126.564C371.789 126.564 369.938 128.415 369.938 130.698L369.938 167.122C369.938 169.406 371.789 171.256 374.072 171.256L423.412 171.256C425.695 171.256 427.546 169.406 427.546 167.122L427.546 130.698C427.546 128.415 425.695 126.564 423.412 126.564Z" fill="white"/>
</g>
<g style="mix-blend-mode:soft-light" opacity="0.9">
<path d="M486.626 126.564L437.286 126.564C435.003 126.564 433.152 128.415 433.152 130.698L433.152 167.122C433.152 169.406 435.003 171.256 437.286 171.256L486.626 171.256C488.91 171.256 490.76 169.406 490.76 167.122L490.76 130.698C490.76 128.415 488.91 126.564 486.626 126.564Z" fill="white"/>
</g>
<path d="M60.9948 142.235C61.057 141.272 61.4248 140.52 62.0983 139.982C62.7821 139.443 63.6525 139.173 64.7093 139.173C65.4346 139.173 66.0615 139.303 66.5899 139.562C67.1183 139.821 67.5172 140.173 67.7866 140.619C68.056 141.064 68.1907 141.567 68.1907 142.126C68.1907 142.769 68.0198 143.318 67.6778 143.774C67.3359 144.23 66.9266 144.535 66.45 144.691L66.45 144.753C67.0613 144.939 67.538 145.281 67.8799 145.779C68.2218 146.266 68.3928 146.893 68.3928 147.659C68.3928 148.271 68.2529 148.815 67.9731 149.291C67.6934 149.768 67.2789 150.146 66.7298 150.426C66.1806 150.695 65.5227 150.83 64.756 150.83C63.6369 150.83 62.7148 150.545 61.9895 149.975C61.2746 149.395 60.8912 148.566 60.8394 147.488L62.549 147.488C62.5904 148.037 62.8029 148.488 63.1862 148.84C63.5696 149.182 64.0877 149.353 64.7404 149.353C65.3724 149.353 65.8594 149.182 66.2013 148.84C66.5433 148.488 66.7142 148.037 66.7142 147.488C66.7142 146.763 66.4811 146.25 66.0148 145.95C65.559 145.639 64.8544 145.483 63.9011 145.483L63.4971 145.483L63.4971 144.022L63.9167 144.022C64.756 144.012 65.3932 143.872 65.8283 143.603C66.2739 143.333 66.4966 142.909 66.4966 142.328C66.4966 141.831 66.336 141.437 66.0148 141.147C65.6936 140.847 65.2378 140.697 64.6472 140.697C64.0669 140.697 63.6162 140.847 63.295 141.147C62.9738 141.437 62.7821 141.8 62.72 142.235L60.9948 142.235ZM70.0208 141.054L70.0208 139.438L73.2535 139.438L73.2535 150.768L71.4662 150.768L71.4662 141.054L70.0208 141.054Z" fill="white"/>
<path d="M127.999 141.054L127.999 139.438L131.232 139.438L131.232 150.768L129.444 150.768L129.444 141.054L127.999 141.054Z" fill="white"/>
<path d="M192.426 148.359C193.42 147.499 194.203 146.794 194.773 146.245C195.353 145.685 195.835 145.105 196.218 144.504C196.601 143.903 196.793 143.302 196.793 142.701C196.793 142.08 196.643 141.593 196.342 141.24C196.052 140.888 195.591 140.712 194.959 140.712C194.348 140.712 193.871 140.909 193.529 141.303C193.198 141.686 193.022 142.204 193.001 142.857L191.291 142.857C191.322 141.676 191.675 140.774 192.348 140.153C193.032 139.521 193.897 139.205 194.944 139.205C196.073 139.205 196.954 139.515 197.586 140.137C198.228 140.759 198.549 141.588 198.549 142.624C198.549 143.37 198.358 144.09 197.974 144.784C197.601 145.468 197.15 146.084 196.622 146.634C196.104 147.172 195.441 147.799 194.633 148.514L193.933 149.136L198.86 149.136L198.86 150.612L191.307 150.612L191.307 149.322L192.426 148.359Z" fill="white"/>
<path d="M254.63 142.235C254.692 141.272 255.06 140.52 255.733 139.982C256.417 139.443 257.288 139.173 258.345 139.173C259.07 139.173 259.697 139.303 260.225 139.562C260.754 139.821 261.152 140.173 261.422 140.619C261.691 141.064 261.826 141.567 261.826 142.126C261.826 142.769 261.655 143.318 261.313 143.774C260.971 144.23 260.562 144.535 260.085 144.691L260.085 144.753C260.697 144.939 261.173 145.281 261.515 145.779C261.857 146.266 262.028 146.893 262.028 147.659C262.028 148.271 261.888 148.815 261.608 149.291C261.329 149.768 260.914 150.146 260.365 150.426C259.816 150.695 259.158 150.83 258.391 150.83C257.272 150.83 256.35 150.545 255.625 149.975C254.91 149.395 254.526 148.566 254.475 147.488L256.184 147.488C256.226 148.037 256.438 148.488 256.821 148.84C257.205 149.182 257.723 149.353 258.376 149.353C259.008 149.353 259.495 149.182 259.837 148.84C260.178 148.488 260.349 148.037 260.349 147.488C260.349 146.763 260.116 146.25 259.65 145.95C259.194 145.639 258.49 145.483 257.536 145.483L257.132 145.483L257.132 144.022L257.552 144.022C258.391 144.012 259.028 143.872 259.464 143.603C259.909 143.333 260.132 142.909 260.132 142.328C260.132 141.831 259.971 141.437 259.65 141.147C259.329 140.847 258.873 140.697 258.282 140.697C257.702 140.697 257.251 140.847 256.93 141.147C256.609 141.437 256.417 141.8 256.355 142.235L254.63 142.235Z" fill="white"/>
<path d="M317.658 148.405L317.658 147.069L322.88 139.578L325.025 139.578L325.025 146.867L326.47 146.867L326.47 148.405L325.025 148.405L325.025 150.768L323.284 150.768L323.284 148.405L317.658 148.405ZM323.362 141.38L319.694 146.867L323.362 146.867L323.362 141.38Z" fill="white"/>
<path d="M388.394 140.961L383.188 140.961L383.188 144.054C383.406 143.763 383.727 143.52 384.152 143.323C384.587 143.126 385.048 143.028 385.535 143.028C386.405 143.028 387.11 143.214 387.648 143.587C388.198 143.96 388.586 144.432 388.814 145.002C389.052 145.571 389.172 146.172 389.172 146.804C389.172 147.571 389.021 148.255 388.721 148.856C388.431 149.447 387.99 149.913 387.4 150.255C386.82 150.597 386.105 150.768 385.255 150.768C384.126 150.768 383.219 150.488 382.535 149.928C381.851 149.369 381.442 148.628 381.307 147.706L383.033 147.706C383.147 148.193 383.4 148.581 383.794 148.872C384.188 149.151 384.68 149.291 385.271 149.291C386.006 149.291 386.555 149.068 386.918 148.623C387.291 148.177 387.478 147.587 387.478 146.851C387.478 146.105 387.291 145.535 386.918 145.142C386.545 144.737 385.996 144.535 385.271 144.535C384.763 144.535 384.333 144.665 383.981 144.924C383.639 145.173 383.39 145.515 383.235 145.95L381.556 145.95L381.556 139.407L388.394 139.407L388.394 140.961Z" fill="white"/>
<path d="M450.397 142.064C450.283 141.588 450.075 141.23 449.775 140.992C449.474 140.754 449.055 140.634 448.516 140.634C447.698 140.634 447.086 140.95 446.682 141.582C446.278 142.204 446.066 143.24 446.045 144.691C446.314 144.235 446.708 143.883 447.226 143.634C447.744 143.385 448.304 143.261 448.905 143.261C449.588 143.261 450.189 143.411 450.707 143.712C451.236 144.002 451.645 144.427 451.935 144.986C452.236 145.546 452.386 146.214 452.386 146.991C452.386 147.716 452.241 148.364 451.951 148.934C451.671 149.504 451.251 149.954 450.692 150.286C450.132 150.607 449.459 150.768 448.671 150.768C447.604 150.768 446.765 150.535 446.154 150.068C445.553 149.592 445.128 148.923 444.879 148.063C444.641 147.203 444.522 146.131 444.522 144.846C444.522 141.054 445.858 139.158 448.532 139.158C449.568 139.158 450.381 139.438 450.972 139.997C451.573 140.557 451.925 141.246 452.029 142.064L450.397 142.064ZM448.516 144.753C447.884 144.753 447.345 144.945 446.9 145.328C446.465 145.701 446.247 146.245 446.247 146.96C446.247 147.675 446.449 148.245 446.853 148.67C447.268 149.084 447.843 149.291 448.578 149.291C449.231 149.291 449.744 149.089 450.117 148.685C450.5 148.281 450.692 147.742 450.692 147.069C450.692 146.364 450.505 145.805 450.132 145.39C449.77 144.965 449.231 144.753 448.516 144.753Z" fill="white"/>
<g style="mix-blend-mode:soft-light" opacity="0.9">
<path d="M107.322 177.2L57.9821 177.2C55.699 177.2 53.8483 179.051 53.8483 181.334L53.8483 217.758C53.8483 220.041 55.699 221.892 57.9821 221.892L107.322 221.892C109.605 221.892 111.456 220.041 111.456 217.758L111.456 181.334C111.456 179.051 109.605 177.2 107.322 177.2Z" fill="white"/>
</g>
<g style="mix-blend-mode:soft-light" opacity="0.9">
<path d="M170.537 177.2L121.196 177.2C118.913 177.2 117.063 179.051 117.063 181.334L117.063 217.758C117.063 220.041 118.913 221.892 121.196 221.892L170.537 221.892C172.82 221.892 174.671 220.041 174.671 217.758L174.671 181.334C174.671 179.051 172.82 177.2 170.537 177.2Z" fill="white"/>
</g>
<g style="mix-blend-mode:soft-light" opacity="0.9">
<path d="M233.769 177.2L184.429 177.2C182.146 177.2 180.295 179.051 180.295 181.334L180.295 217.758C180.295 220.041 182.146 221.892 184.429 221.892L233.769 221.892C236.052 221.892 237.903 220.041 237.903 217.758L237.903 181.334C237.903 179.051 236.052 177.2 233.769 177.2Z" fill="white"/>
</g>
<g style="mix-blend-mode:soft-light" opacity="0.9">
<path d="M296.983 177.2L247.643 177.2C245.36 177.2 243.509 179.051 243.509 181.334L243.509 217.758C243.509 220.041 245.36 221.892 247.643 221.892L296.983 221.892C299.266 221.892 301.117 220.041 301.117 217.758L301.117 181.334C301.117 179.051 299.266 177.2 296.983 177.2Z" fill="white"/>
</g>
<g style="mix-blend-mode:soft-light" opacity="0.9">
<path d="M360.198 177.2L310.857 177.2C308.574 177.2 306.724 179.051 306.724 181.334L306.724 217.758C306.724 220.041 308.574 221.892 310.857 221.892L360.198 221.892C362.481 221.892 364.332 220.041 364.332 217.758L364.332 181.334C364.332 179.051 362.481 177.2 360.198 177.2Z" fill="white"/>
</g>
<g style="mix-blend-mode:soft-light" opacity="0.9">
<path d="M423.412 177.2L374.072 177.2C371.789 177.2 369.938 179.051 369.938 181.334L369.938 217.758C369.938 220.041 371.789 221.892 374.072 221.892L423.412 221.892C425.695 221.892 427.546 220.041 427.546 217.758L427.546 181.334C427.546 179.051 425.695 177.2 423.412 177.2Z" fill="white"/>
</g>
<g style="mix-blend-mode:soft-light" opacity="0.9">
<path d="M486.626 177.2L437.286 177.2C435.003 177.2 433.152 179.051 433.152 181.334L433.152 217.758C433.152 220.041 435.003 221.892 437.286 221.892L486.626 221.892C488.91 221.892 490.76 220.041 490.76 217.758L490.76 181.334C490.76 179.051 488.91 177.2 486.626 177.2Z" fill="white"/>
</g>
<path d="M72.1982 191.441L67.8776 201.403L66.0902 201.403L70.4575 191.627L64.707 191.627L64.707 190.12L72.1982 190.12L72.1982 191.441Z" fill="white"/>
<path d="M130.144 195.482C129.066 194.943 128.527 194.093 128.527 192.933C128.527 192.373 128.667 191.86 128.947 191.394C129.227 190.928 129.647 190.56 130.206 190.291C130.766 190.011 131.449 189.871 132.258 189.871C133.055 189.871 133.734 190.011 134.294 190.291C134.863 190.56 135.288 190.928 135.568 191.394C135.848 191.86 135.988 192.373 135.988 192.933C135.988 193.513 135.837 194.026 135.537 194.471C135.247 194.907 134.858 195.243 134.371 195.482C134.962 195.699 135.428 196.057 135.77 196.554C136.112 197.041 136.283 197.616 136.283 198.279C136.283 198.953 136.112 199.548 135.77 200.066C135.428 200.585 134.951 200.983 134.34 201.263C133.729 201.543 133.035 201.683 132.258 201.683C131.48 201.683 130.786 201.543 130.175 201.263C129.574 200.983 129.103 200.585 128.761 200.066C128.419 199.548 128.248 198.953 128.248 198.279C128.248 197.606 128.419 197.025 128.761 196.538C129.103 196.051 129.564 195.699 130.144 195.482ZM134.294 193.15C134.294 192.57 134.112 192.125 133.75 191.814C133.387 191.503 132.89 191.347 132.258 191.347C131.636 191.347 131.144 191.503 130.781 191.814C130.418 192.125 130.237 192.575 130.237 193.166C130.237 193.684 130.424 194.109 130.797 194.44C131.18 194.761 131.667 194.922 132.258 194.922C132.848 194.922 133.335 194.756 133.718 194.425C134.102 194.093 134.294 193.668 134.294 193.15ZM132.258 196.259C131.574 196.259 131.014 196.43 130.579 196.772C130.154 197.103 129.942 197.585 129.942 198.217C129.942 198.808 130.149 199.289 130.563 199.662C130.978 200.025 131.543 200.206 132.258 200.206C132.962 200.206 133.516 200.02 133.921 199.647C134.335 199.274 134.542 198.797 134.542 198.217C134.542 197.595 134.33 197.113 133.905 196.772C133.491 196.43 132.941 196.259 132.258 196.259Z" fill="white"/>
<path d="M193.654 198.326C193.757 198.844 193.98 199.238 194.322 199.507C194.664 199.776 195.125 199.911 195.705 199.911C196.441 199.911 196.98 199.621 197.321 199.041C197.663 198.46 197.834 197.471 197.834 196.072C197.586 196.424 197.233 196.699 196.777 196.896C196.332 197.082 195.845 197.176 195.317 197.176C194.643 197.176 194.032 197.041 193.483 196.772C192.933 196.492 192.498 196.083 192.177 195.544C191.866 194.995 191.711 194.331 191.711 193.554C191.711 192.415 192.042 191.508 192.706 190.835C193.379 190.151 194.301 189.809 195.472 189.809C196.881 189.809 197.881 190.28 198.472 191.223C199.073 192.156 199.373 193.591 199.373 195.528C199.373 196.865 199.259 197.958 199.031 198.808C198.813 199.657 198.43 200.3 197.881 200.735C197.332 201.17 196.57 201.388 195.596 201.388C194.488 201.388 193.633 201.097 193.032 200.517C192.431 199.937 192.094 199.206 192.022 198.326L193.654 198.326ZM195.627 195.684C196.249 195.684 196.736 195.492 197.088 195.109C197.451 194.715 197.632 194.197 197.632 193.554C197.632 192.839 197.441 192.285 197.057 191.891C196.684 191.487 196.171 191.285 195.519 191.285C194.866 191.285 194.348 191.492 193.964 191.907C193.591 192.311 193.405 192.845 193.405 193.508C193.405 194.14 193.586 194.663 193.949 195.077C194.322 195.482 194.881 195.684 195.627 195.684Z" fill="white"/>
<path d="M250.436 191.689L250.436 190.073L253.669 190.073L253.669 201.403L251.881 201.403L251.881 191.689L250.436 191.689ZM256.103 195.59C256.103 193.798 256.403 192.399 257.004 191.394C257.615 190.379 258.662 189.871 260.144 189.871C261.625 189.871 262.667 190.379 263.268 191.394C263.879 192.399 264.185 193.798 264.185 195.59C264.185 197.404 263.879 198.823 263.268 199.849C262.667 200.864 261.625 201.372 260.144 201.372C258.662 201.372 257.615 200.864 257.004 199.849C256.403 198.823 256.103 197.404 256.103 195.59ZM262.444 195.59C262.444 194.751 262.387 194.041 262.273 193.461C262.169 192.881 261.952 192.409 261.62 192.047C261.289 191.674 260.796 191.487 260.144 191.487C259.491 191.487 258.999 191.674 258.667 192.047C258.336 192.409 258.113 192.881 257.999 193.461C257.895 194.041 257.843 194.751 257.843 195.59C257.843 196.461 257.895 197.191 257.999 197.782C258.102 198.372 258.32 198.849 258.652 199.212C258.994 199.574 259.491 199.756 260.144 199.756C260.796 199.756 261.289 199.574 261.62 199.212C261.962 198.849 262.185 198.372 262.288 197.782C262.392 197.191 262.444 196.461 262.444 195.59Z" fill="white"/>
<path d="M313.668 191.689L313.668 190.073L316.901 190.073L316.901 201.403L315.114 201.403L315.114 191.689L313.668 191.689ZM319.102 191.689L319.102 190.073L322.334 190.073L322.334 201.403L320.547 201.403L320.547 191.689L319.102 191.689Z" fill="white"/>
<path d="M376.883 191.689L376.883 190.073L380.115 190.073L380.115 201.403L378.328 201.403L378.328 191.689L376.883 191.689ZM383.528 198.994C384.523 198.134 385.305 197.43 385.875 196.88C386.455 196.321 386.937 195.741 387.321 195.14C387.704 194.539 387.896 193.938 387.896 193.337C387.896 192.715 387.745 192.228 387.445 191.876C387.155 191.524 386.694 191.347 386.062 191.347C385.45 191.347 384.974 191.544 384.632 191.938C384.3 192.321 384.124 192.839 384.103 193.492L382.394 193.492C382.425 192.311 382.777 191.41 383.451 190.788C384.135 190.156 385 189.84 386.046 189.84C387.176 189.84 388.056 190.151 388.688 190.772C389.331 191.394 389.652 192.223 389.652 193.259C389.652 194.005 389.46 194.725 389.077 195.419C388.704 196.103 388.253 196.72 387.725 197.269C387.207 197.808 386.544 198.435 385.735 199.149L385.036 199.771L389.963 199.771L389.963 201.248L382.409 201.248L382.409 199.958L383.528 198.994Z" fill="white"/>
<path d="M440.097 191.689L440.097 190.073L443.33 190.073L443.33 201.403L441.542 201.403L441.542 191.689L440.097 191.689ZM445.732 192.871C445.795 191.907 446.162 191.156 446.836 190.617C447.52 190.078 448.39 189.809 449.447 189.809C450.172 189.809 450.799 189.938 451.328 190.197C451.856 190.456 452.255 190.809 452.524 191.254C452.794 191.7 452.928 192.202 452.928 192.762C452.928 193.404 452.757 193.953 452.416 194.409C452.074 194.865 451.664 195.171 451.188 195.326L451.188 195.388C451.799 195.575 452.276 195.917 452.618 196.414C452.959 196.901 453.13 197.528 453.13 198.295C453.13 198.906 452.991 199.45 452.711 199.927C452.431 200.403 452.017 200.781 451.467 201.061C450.918 201.331 450.26 201.465 449.494 201.465C448.375 201.465 447.452 201.18 446.727 200.61C446.012 200.03 445.629 199.201 445.577 198.124L447.287 198.124C447.328 198.673 447.541 199.124 447.924 199.476C448.307 199.818 448.825 199.989 449.478 199.989C450.11 199.989 450.597 199.818 450.939 199.476C451.281 199.124 451.452 198.673 451.452 198.124C451.452 197.398 451.219 196.886 450.753 196.585C450.297 196.274 449.592 196.119 448.639 196.119L448.235 196.119L448.235 194.658L448.654 194.658C449.494 194.648 450.131 194.508 450.566 194.238C451.012 193.969 451.234 193.544 451.234 192.964C451.234 192.466 451.074 192.073 450.753 191.783C450.431 191.482 449.975 191.332 449.385 191.332C448.805 191.332 448.354 191.482 448.033 191.783C447.711 192.073 447.52 192.435 447.458 192.871L445.732 192.871Z" fill="white"/>
<g style="mix-blend-mode:soft-light" opacity="0.9">
<path d="M107.322 227.835L57.9821 227.835C55.699 227.835 53.8483 229.686 53.8483 231.969L53.8483 268.393C53.8483 270.676 55.699 272.527 57.9821 272.527L107.322 272.527C109.605 272.527 111.456 270.676 111.456 268.393L111.456 231.969C111.456 229.686 109.605 227.835 107.322 227.835Z" fill="white"/>
</g>
<g style="mix-blend-mode:soft-light" opacity="0.9">
<path d="M170.537 227.835L121.196 227.835C118.913 227.835 117.063 229.686 117.063 231.969L117.063 268.393C117.063 270.676 118.913 272.527 121.196 272.527L170.537 272.527C172.82 272.527 174.671 270.676 174.671 268.393L174.671 231.969C174.671 229.686 172.82 227.835 170.537 227.835Z" fill="white"/>
</g>
<g style="mix-blend-mode:soft-light" opacity="0.9">
<path d="M233.769 227.835L184.429 227.835C182.146 227.835 180.295 229.686 180.295 231.969L180.295 268.393C180.295 270.676 182.146 272.527 184.429 272.527L233.769 272.527C236.052 272.527 237.903 270.676 237.903 268.393L237.903 231.969C237.903 229.686 236.052 227.835 233.769 227.835Z" fill="white"/>
</g>
<g style="mix-blend-mode:soft-light" opacity="0.9">
<path d="M296.983 227.835L247.643 227.835C245.36 227.835 243.509 229.686 243.509 231.969L243.509 268.393C243.509 270.676 245.36 272.527 247.643 272.527L296.983 272.527C299.266 272.527 301.117 270.676 301.117 268.393L301.117 231.969C301.117 229.686 299.266 227.835 296.983 227.835Z" fill="white"/>
</g>
<g style="mix-blend-mode:soft-light" opacity="0.9">
<path d="M360.198 227.835L310.857 227.835C308.574 227.835 306.724 229.686 306.724 231.969L306.724 268.393C306.724 270.676 308.574 272.527 310.857 272.527L360.198 272.527C362.481 272.527 364.332 270.676 364.332 268.393L364.332 231.969C364.332 229.686 362.481 227.835 360.198 227.835Z" fill="white"/>
</g>
<g style="mix-blend-mode:soft-light" opacity="0.9">
<path d="M423.412 227.835L374.072 227.835C371.789 227.835 369.938 229.686 369.938 231.969L369.938 268.393C369.938 270.676 371.789 272.527 374.072 272.527L423.412 272.527C425.695 272.527 427.546 270.676 427.546 268.393L427.546 231.969C427.546 229.686 425.695 227.835 423.412 227.835Z" fill="white"/>
</g>
<g style="mix-blend-mode:soft-light" opacity="0.9">
<path d="M486.626 227.835L437.286 227.835C435.003 227.835 433.152 229.686 433.152 231.969L433.152 268.393C433.152 270.676 435.003 272.527 437.286 272.527L486.626 272.527C488.91 272.527 490.76 270.676 490.76 268.393L490.76 231.969C490.76 229.686 488.91 227.835 486.626 227.835Z" fill="white"/>
</g>
<path d="M60.7928 242.307L60.7928 240.691L64.0255 240.691L64.0255 252.021L62.2382 252.021L62.2382 242.307L60.7928 242.307ZM66.2419 249.658L66.2419 248.322L71.464 240.83L73.6088 240.83L73.6088 248.12L75.0542 248.12L75.0542 249.658L73.6088 249.658L73.6088 252.021L71.8681 252.021L71.8681 249.658L66.2419 249.658ZM71.9458 242.633L68.2779 248.12L71.9458 248.12L71.9458 242.633Z" fill="white"/>
<path d="M124.007 242.307L124.007 240.691L127.24 240.691L127.24 252.021L125.453 252.021L125.453 242.307L124.007 242.307ZM136.979 242.214L131.772 242.214L131.772 245.307C131.99 245.016 132.311 244.773 132.736 244.576C133.171 244.379 133.632 244.281 134.119 244.281C134.989 244.281 135.694 244.467 136.233 244.84C136.782 245.213 137.17 245.685 137.398 246.255C137.637 246.824 137.756 247.425 137.756 248.057C137.756 248.824 137.605 249.508 137.305 250.109C137.015 250.7 136.575 251.166 135.984 251.508C135.404 251.85 134.689 252.021 133.839 252.021C132.71 252.021 131.803 251.741 131.119 251.181C130.435 250.622 130.026 249.881 129.891 248.959L131.617 248.959C131.731 249.446 131.984 249.834 132.378 250.124C132.772 250.404 133.264 250.544 133.855 250.544C134.59 250.544 135.139 250.321 135.502 249.876C135.875 249.43 136.062 248.84 136.062 248.104C136.062 247.358 135.875 246.788 135.502 246.394C135.129 245.99 134.58 245.788 133.855 245.788C133.347 245.788 132.917 245.918 132.565 246.177C132.223 246.426 131.974 246.767 131.819 247.203L130.14 247.203L130.14 240.659L136.979 240.659L136.979 242.214Z" fill="white"/>
<path d="M187.222 242.307L187.222 240.691L190.454 240.691L190.454 252.021L188.667 252.021L188.667 242.307L187.222 242.307ZM198.981 243.317C198.867 242.841 198.659 242.483 198.359 242.245C198.059 242.006 197.639 241.887 197.1 241.887C196.282 241.887 195.67 242.203 195.266 242.835C194.862 243.457 194.65 244.493 194.629 245.944C194.898 245.488 195.292 245.136 195.81 244.887C196.328 244.638 196.888 244.514 197.489 244.514C198.173 244.514 198.773 244.664 199.292 244.965C199.82 245.255 200.229 245.68 200.519 246.239C200.82 246.799 200.97 247.467 200.97 248.244C200.97 248.969 200.825 249.617 200.535 250.187C200.255 250.757 199.835 251.207 199.276 251.539C198.716 251.86 198.043 252.021 197.256 252.021C196.188 252.021 195.349 251.787 194.738 251.321C194.137 250.845 193.712 250.176 193.463 249.316C193.225 248.456 193.106 247.384 193.106 246.099C193.106 242.307 194.442 240.411 197.116 240.411C198.152 240.411 198.965 240.691 199.556 241.25C200.157 241.81 200.509 242.499 200.613 243.317L198.981 243.317ZM197.1 246.006C196.468 246.006 195.929 246.198 195.484 246.581C195.049 246.954 194.831 247.498 194.831 248.213C194.831 248.928 195.033 249.498 195.437 249.922C195.852 250.337 196.427 250.544 197.162 250.544C197.815 250.544 198.328 250.342 198.701 249.938C199.084 249.534 199.276 248.995 199.276 248.322C199.276 247.617 199.089 247.058 198.716 246.643C198.354 246.218 197.815 246.006 197.1 246.006Z" fill="white"/>
<path d="M250.436 242.307L250.436 240.691L253.669 240.691L253.669 252.021L251.881 252.021L251.881 242.307L250.436 242.307ZM263.283 242.058L258.962 252.021L257.175 252.021L261.542 242.245L255.792 242.245L255.792 240.737L263.283 240.737L263.283 242.058Z" fill="white"/>
<path d="M313.668 242.307L313.668 240.691L316.901 240.691L316.901 252.021L315.114 252.021L315.114 242.307L313.668 242.307ZM321.247 246.099C320.169 245.56 319.63 244.711 319.63 243.55C319.63 242.991 319.77 242.478 320.05 242.012C320.33 241.545 320.749 241.178 321.309 240.908C321.868 240.628 322.552 240.489 323.36 240.489C324.158 240.489 324.837 240.628 325.396 240.908C325.966 241.178 326.391 241.545 326.671 242.012C326.95 242.478 327.09 242.991 327.09 243.55C327.09 244.131 326.94 244.643 326.64 245.089C326.349 245.524 325.961 245.861 325.474 246.099C326.064 246.317 326.531 246.674 326.873 247.172C327.215 247.659 327.386 248.234 327.386 248.897C327.386 249.57 327.215 250.166 326.873 250.684C326.531 251.202 326.054 251.601 325.443 251.881C324.832 252.16 324.137 252.3 323.36 252.3C322.583 252.3 321.889 252.16 321.278 251.881C320.677 251.601 320.205 251.202 319.863 250.684C319.521 250.166 319.35 249.57 319.35 248.897C319.35 248.223 319.521 247.643 319.863 247.156C320.205 246.669 320.666 246.317 321.247 246.099ZM325.396 243.768C325.396 243.188 325.215 242.742 324.852 242.431C324.49 242.12 323.992 241.965 323.36 241.965C322.739 241.965 322.246 242.12 321.884 242.431C321.521 242.742 321.34 243.193 321.34 243.783C321.34 244.301 321.526 244.726 321.899 245.058C322.283 245.379 322.77 245.54 323.36 245.54C323.951 245.54 324.438 245.374 324.821 245.042C325.205 244.711 325.396 244.286 325.396 243.768ZM323.36 246.876C322.676 246.876 322.117 247.047 321.682 247.389C321.257 247.721 321.044 248.202 321.044 248.835C321.044 249.425 321.252 249.907 321.666 250.28C322.081 250.643 322.645 250.824 323.36 250.824C324.065 250.824 324.619 250.637 325.023 250.264C325.438 249.891 325.645 249.415 325.645 248.835C325.645 248.213 325.432 247.731 325.008 247.389C324.593 247.047 324.044 246.876 323.36 246.876Z" fill="white"/>
<path d="M376.883 242.307L376.883 240.691L380.115 240.691L380.115 252.021L378.328 252.021L378.328 242.307L376.883 242.307ZM384.756 248.943C384.86 249.461 385.083 249.855 385.425 250.124C385.766 250.394 386.228 250.529 386.808 250.529C387.543 250.529 388.082 250.238 388.424 249.658C388.766 249.078 388.937 248.089 388.937 246.69C388.688 247.042 388.336 247.317 387.88 247.513C387.435 247.7 386.948 247.793 386.419 247.793C385.746 247.793 385.134 247.659 384.585 247.389C384.036 247.109 383.601 246.7 383.28 246.161C382.969 245.612 382.813 244.949 382.813 244.172C382.813 243.032 383.145 242.126 383.808 241.452C384.482 240.768 385.404 240.426 386.575 240.426C387.984 240.426 388.984 240.898 389.574 241.841C390.175 242.773 390.476 244.208 390.476 246.146C390.476 247.482 390.362 248.575 390.134 249.425C389.916 250.275 389.533 250.917 388.984 251.352C388.434 251.787 387.673 252.005 386.699 252.005C385.59 252.005 384.736 251.715 384.135 251.135C383.534 250.554 383.197 249.824 383.124 248.943L384.756 248.943ZM386.73 246.301C387.352 246.301 387.839 246.11 388.191 245.726C388.554 245.332 388.735 244.814 388.735 244.172C388.735 243.457 388.543 242.903 388.16 242.509C387.787 242.105 387.274 241.903 386.621 241.903C385.968 241.903 385.45 242.11 385.067 242.525C384.694 242.929 384.508 243.462 384.508 244.125C384.508 244.757 384.689 245.281 385.052 245.695C385.425 246.099 385.984 246.301 386.73 246.301Z" fill="white"/>
<path d="M441.309 249.612C442.304 248.752 443.086 248.047 443.656 247.498C444.236 246.938 444.718 246.358 445.101 245.757C445.485 245.156 445.676 244.555 445.676 243.954C445.676 243.333 445.526 242.846 445.226 242.493C444.936 242.141 444.474 241.965 443.842 241.965C443.231 241.965 442.755 242.162 442.413 242.556C442.081 242.939 441.905 243.457 441.884 244.11L440.175 244.11C440.206 242.929 440.558 242.027 441.231 241.405C441.915 240.773 442.78 240.457 443.827 240.457C444.956 240.457 445.837 240.768 446.469 241.39C447.111 242.012 447.433 242.841 447.433 243.877C447.433 244.623 447.241 245.343 446.858 246.037C446.485 246.721 446.034 247.337 445.505 247.886C444.987 248.425 444.324 249.052 443.516 249.767L442.817 250.389L447.743 250.389L447.743 251.865L440.19 251.865L440.19 250.575L441.309 249.612ZM449.3 246.208C449.3 244.415 449.6 243.017 450.201 242.012C450.813 240.996 451.859 240.489 453.341 240.489C454.823 240.489 455.864 240.996 456.465 242.012C457.076 243.017 457.382 244.415 457.382 246.208C457.382 248.021 457.076 249.441 456.465 250.466C455.864 251.482 454.823 251.99 453.341 251.99C451.859 251.99 450.813 251.482 450.201 250.466C449.6 249.441 449.3 248.021 449.3 246.208ZM455.641 246.208C455.641 245.369 455.584 244.659 455.47 244.079C455.366 243.498 455.149 243.027 454.817 242.664C454.486 242.291 453.994 242.105 453.341 242.105C452.688 242.105 452.196 242.291 451.864 242.664C451.533 243.027 451.31 243.498 451.196 244.079C451.092 244.659 451.041 245.369 451.041 246.208C451.041 247.078 451.092 247.809 451.196 248.399C451.3 248.99 451.517 249.467 451.849 249.829C452.191 250.192 452.688 250.373 453.341 250.373C453.994 250.373 454.486 250.192 454.817 249.829C455.159 249.467 455.382 248.99 455.486 248.399C455.589 247.809 455.641 247.078 455.641 246.208Z" fill="white"/>
<g style="mix-blend-mode:soft-light" opacity="0.9">
<path d="M107.322 278.453L57.9821 278.453C55.699 278.453 53.8483 280.304 53.8483 282.587L53.8483 319.011C53.8483 321.294 55.699 323.145 57.9821 323.145L107.322 323.145C109.605 323.145 111.456 321.294 111.456 319.011L111.456 282.587C111.456 280.304 109.605 278.453 107.322 278.453Z" fill="white"/>
</g>
<g style="mix-blend-mode:soft-light" opacity="0.9">
<path d="M170.537 278.453L121.196 278.453C118.913 278.453 117.063 280.304 117.063 282.587L117.063 319.011C117.063 321.294 118.913 323.145 121.196 323.145L170.537 323.145C172.82 323.145 174.671 321.294 174.671 319.011L174.671 282.587C174.671 280.304 172.82 278.453 170.537 278.453Z" fill="white"/>
</g>
<g style="mix-blend-mode:soft-light" opacity="0.9">
<path d="M233.769 278.453L184.429 278.453C182.146 278.453 180.295 280.304 180.295 282.587L180.295 319.011C180.295 321.294 182.146 323.145 184.429 323.145L233.769 323.145C236.052 323.145 237.903 321.294 237.903 319.011L237.903 282.587C237.903 280.304 236.052 278.453 233.769 278.453Z" fill="white"/>
</g>
<g style="mix-blend-mode:soft-light" opacity="0.9">
<path d="M296.983 278.453L247.643 278.453C245.36 278.453 243.509 280.304 243.509 282.587L243.509 319.011C243.509 321.294 245.36 323.145 247.643 323.145L296.983 323.145C299.266 323.145 301.117 321.294 301.117 319.011L301.117 282.587C301.117 280.304 299.266 278.453 296.983 278.453Z" fill="white"/>
</g>
<g style="mix-blend-mode:soft-light" opacity="0.9">
<path d="M360.198 278.453L310.857 278.453C308.574 278.453 306.724 280.304 306.724 282.587L306.724 319.011C306.724 321.294 308.574 323.145 310.857 323.145L360.198 323.145C362.481 323.145 364.332 321.294 364.332 319.011L364.332 282.587C364.332 280.304 362.481 278.453 360.198 278.453Z" fill="white"/>
</g>
<g style="mix-blend-mode:soft-light" opacity="0.9">
<path d="M423.412 278.453L374.072 278.453C371.789 278.453 369.938 280.304 369.938 282.587L369.938 319.011C369.938 321.294 371.789 323.145 374.072 323.145L423.412 323.145C425.695 323.145 427.546 321.294 427.546 319.011L427.546 282.587C427.546 280.304 425.695 278.453 423.412 278.453Z" fill="white"/>
</g>
<g style="mix-blend-mode:soft-light" opacity="0.9">
<path d="M486.626 278.453L437.286 278.453C435.003 278.453 433.152 280.304 433.152 282.587L433.152 319.011C433.152 321.294 435.003 323.145 437.286 323.145L486.626 323.145C488.91 323.145 490.76 321.294 490.76 319.011L490.76 282.587C490.76 280.304 488.91 278.453 486.626 278.453Z" fill="white"/>
</g>
<path d="M62.005 300.247C62.9997 299.387 63.782 298.682 64.3519 298.133C64.9321 297.574 65.4139 296.994 65.7973 296.393C66.1806 295.792 66.3723 295.191 66.3723 294.59C66.3723 293.968 66.2221 293.481 65.9216 293.129C65.6315 292.777 65.1704 292.6 64.5384 292.6C63.9271 292.6 63.4504 292.797 63.1085 293.191C62.777 293.574 62.6008 294.092 62.5801 294.745L60.8705 294.745C60.9016 293.564 61.2538 292.663 61.9273 292.041C62.6112 291.409 63.4763 291.093 64.5228 291.093C65.6522 291.093 66.5329 291.404 67.1649 292.025C67.8073 292.647 68.1285 293.476 68.1285 294.512C68.1285 295.258 67.9369 295.978 67.5535 296.672C67.1805 297.356 66.7298 297.973 66.2013 298.522C65.6833 299.061 65.0202 299.687 64.212 300.402L63.5126 301.024L68.4394 301.024L68.4394 302.501L60.886 302.501L60.886 301.211L62.005 300.247ZM69.7628 292.942L69.7628 291.326L72.9955 291.326L72.9955 302.656L71.2081 302.656L71.2081 292.942L69.7628 292.942Z" fill="white"/>
<path d="M125.219 300.247C126.214 299.387 126.996 298.682 127.566 298.133C128.147 297.574 128.628 296.994 129.012 296.393C129.395 295.792 129.587 295.191 129.587 294.59C129.587 293.968 129.436 293.481 129.136 293.129C128.846 292.777 128.385 292.6 127.753 292.6C127.141 292.6 126.665 292.797 126.323 293.191C125.991 293.574 125.815 294.092 125.795 294.745L124.085 294.745C124.116 293.564 124.468 292.663 125.142 292.041C125.826 291.409 126.691 291.093 127.737 291.093C128.867 291.093 129.747 291.404 130.379 292.025C131.022 292.647 131.343 293.476 131.343 294.512C131.343 295.258 131.151 295.978 130.768 296.672C130.395 297.356 129.944 297.973 129.416 298.522C128.898 299.061 128.235 299.687 127.426 300.402L126.727 301.024L131.654 301.024L131.654 302.501L124.1 302.501L124.1 301.211L125.219 300.247ZM134.189 300.247C135.184 299.387 135.966 298.682 136.536 298.133C137.116 297.574 137.598 296.994 137.982 296.393C138.365 295.792 138.557 295.191 138.557 294.59C138.557 293.968 138.406 293.481 138.106 293.129C137.816 292.777 137.355 292.6 136.723 292.6C136.111 292.6 135.635 292.797 135.293 293.191C134.961 293.574 134.785 294.092 134.764 294.745L133.055 294.745C133.086 293.564 133.438 292.663 134.112 292.041C134.796 291.409 135.661 291.093 136.707 291.093C137.837 291.093 138.717 291.404 139.349 292.025C139.992 292.647 140.313 293.476 140.313 294.512C140.313 295.258 140.121 295.978 139.738 296.672C139.365 297.356 138.914 297.973 138.386 298.522C137.868 299.061 137.205 299.687 136.396 300.402L135.697 301.024L140.624 301.024L140.624 302.501L133.07 302.501L133.07 301.211L134.189 300.247Z" fill="white"/>
<path d="M188.434 300.247C189.428 299.387 190.211 298.682 190.781 298.133C191.361 297.574 191.843 296.994 192.226 296.393C192.609 295.792 192.801 295.191 192.801 294.59C192.801 293.968 192.651 293.481 192.35 293.129C192.06 292.777 191.599 292.6 190.967 292.6C190.356 292.6 189.879 292.797 189.537 293.191C189.206 293.574 189.03 294.092 189.009 294.745L187.299 294.745C187.33 293.564 187.683 292.663 188.356 292.041C189.04 291.409 189.905 291.093 190.952 291.093C192.081 291.093 192.962 291.404 193.594 292.025C194.236 292.647 194.557 293.476 194.557 294.512C194.557 295.258 194.366 295.978 193.982 296.672C193.609 297.356 193.159 297.973 192.63 298.522C192.112 299.061 191.449 299.687 190.641 300.402L189.941 301.024L194.868 301.024L194.868 302.501L187.315 302.501L187.315 301.211L188.434 300.247ZM196.394 294.123C196.456 293.16 196.824 292.409 197.497 291.87C198.181 291.331 199.051 291.062 200.108 291.062C200.833 291.062 201.46 291.191 201.989 291.45C202.517 291.709 202.916 292.062 203.185 292.507C203.455 292.953 203.589 293.455 203.589 294.015C203.589 294.657 203.419 295.206 203.077 295.662C202.735 296.118 202.325 296.424 201.849 296.579L201.849 296.641C202.46 296.828 202.937 297.17 203.279 297.667C203.621 298.154 203.792 298.781 203.792 299.548C203.792 300.159 203.652 300.703 203.372 301.179C203.092 301.656 202.678 302.034 202.129 302.314C201.579 302.583 200.921 302.718 200.155 302.718C199.036 302.718 198.114 302.433 197.388 301.863C196.673 301.283 196.29 300.454 196.238 299.377L197.948 299.377C197.989 299.926 198.202 300.376 198.585 300.729C198.968 301.071 199.486 301.242 200.139 301.242C200.771 301.242 201.258 301.071 201.6 300.729C201.942 300.376 202.113 299.926 202.113 299.377C202.113 298.651 201.88 298.138 201.414 297.838C200.958 297.527 200.253 297.372 199.3 297.372L198.896 297.372L198.896 295.911L199.315 295.911C200.155 295.9 200.792 295.761 201.227 295.491C201.673 295.222 201.895 294.797 201.895 294.217C201.895 293.719 201.735 293.326 201.414 293.036C201.092 292.735 200.637 292.585 200.046 292.585C199.466 292.585 199.015 292.735 198.694 293.036C198.373 293.326 198.181 293.688 198.119 294.123L196.394 294.123Z" fill="white"/>
<path d="M251.648 300.247C252.643 299.387 253.425 298.682 253.995 298.133C254.575 297.574 255.057 296.994 255.441 296.393C255.824 295.792 256.016 295.191 256.016 294.59C256.016 293.968 255.865 293.481 255.565 293.129C255.275 292.777 254.814 292.6 254.182 292.6C253.57 292.6 253.094 292.797 252.752 293.191C252.42 293.574 252.244 294.092 252.223 294.745L250.514 294.745C250.545 293.564 250.897 292.663 251.571 292.041C252.254 291.409 253.12 291.093 254.166 291.093C255.295 291.093 256.176 291.404 256.808 292.025C257.451 292.647 257.772 293.476 257.772 294.512C257.772 295.258 257.58 295.978 257.197 296.672C256.824 297.356 256.373 297.973 255.845 298.522C255.327 299.061 254.663 299.687 253.855 300.402L253.156 301.024L258.083 301.024L258.083 302.501L250.529 302.501L250.529 301.211L251.648 300.247ZM259.422 300.294L259.422 298.957L264.644 291.466L266.788 291.466L266.788 298.755L268.234 298.755L268.234 300.294L266.788 300.294L266.788 302.656L265.048 302.656L265.048 300.294L259.422 300.294ZM265.125 293.269L261.458 298.755L265.125 298.755L265.125 293.269Z" fill="white"/>
<path d="M314.88 300.247C315.875 299.387 316.657 298.682 317.227 298.133C317.807 297.574 318.289 296.994 318.673 296.393C319.056 295.792 319.248 295.191 319.248 294.59C319.248 293.968 319.097 293.481 318.797 293.129C318.507 292.777 318.046 292.6 317.414 292.6C316.802 292.6 316.326 292.797 315.984 293.191C315.652 293.574 315.476 294.092 315.455 294.745L313.746 294.745C313.777 293.564 314.129 292.663 314.803 292.041C315.487 291.409 316.352 291.093 317.398 291.093C318.528 291.093 319.408 291.404 320.04 292.025C320.683 292.647 321.004 293.476 321.004 294.512C321.004 295.258 320.812 295.978 320.429 296.672C320.056 297.356 319.605 297.973 319.077 298.522C318.559 299.061 317.896 299.687 317.087 300.402L316.388 301.024L321.315 301.024L321.315 302.501L313.761 302.501L313.761 301.211L314.88 300.247ZM330.176 292.849L324.969 292.849L324.969 295.942C325.187 295.652 325.508 295.408 325.933 295.211C326.368 295.015 326.829 294.916 327.316 294.916C328.187 294.916 328.891 295.103 329.43 295.476C329.979 295.849 330.368 296.32 330.596 296.89C330.834 297.46 330.953 298.061 330.953 298.693C330.953 299.46 330.803 300.143 330.502 300.744C330.212 301.335 329.772 301.801 329.181 302.143C328.601 302.485 327.886 302.656 327.036 302.656C325.907 302.656 325 302.376 324.317 301.817C323.633 301.257 323.224 300.516 323.089 299.594L324.814 299.594C324.928 300.081 325.182 300.47 325.576 300.76C325.969 301.04 326.461 301.179 327.052 301.179C327.788 301.179 328.337 300.957 328.699 300.511C329.072 300.066 329.259 299.475 329.259 298.739C329.259 297.993 329.072 297.424 328.699 297.03C328.326 296.626 327.777 296.424 327.052 296.424C326.544 296.424 326.114 296.553 325.762 296.812C325.42 297.061 325.171 297.403 325.016 297.838L323.338 297.838L323.338 291.295L330.176 291.295L330.176 292.849Z" fill="white"/>
<path d="M378.095 300.247C379.09 299.387 379.872 298.682 380.442 298.133C381.022 297.574 381.504 296.994 381.887 296.393C382.27 295.792 382.462 295.191 382.462 294.59C382.462 293.968 382.312 293.481 382.011 293.129C381.721 292.777 381.26 292.6 380.628 292.6C380.017 292.6 379.54 292.797 379.198 293.191C378.867 293.574 378.691 294.092 378.67 294.745L376.96 294.745C376.991 293.564 377.344 292.663 378.017 292.041C378.701 291.409 379.566 291.093 380.613 291.093C381.742 291.093 382.623 291.404 383.255 292.025C383.897 292.647 384.218 293.476 384.218 294.512C384.218 295.258 384.027 295.978 383.643 296.672C383.27 297.356 382.82 297.973 382.291 298.522C381.773 299.061 381.11 299.687 380.302 300.402L379.602 301.024L384.529 301.024L384.529 302.501L376.976 302.501L376.976 301.211L378.095 300.247ZM392.178 293.953C392.064 293.476 391.857 293.118 391.556 292.88C391.256 292.642 390.836 292.523 390.298 292.523C389.479 292.523 388.868 292.839 388.464 293.471C388.059 294.092 387.847 295.129 387.826 296.579C388.096 296.123 388.489 295.771 389.008 295.522C389.526 295.274 390.085 295.149 390.686 295.149C391.37 295.149 391.971 295.299 392.489 295.6C393.017 295.89 393.427 296.315 393.717 296.874C394.017 297.434 394.167 298.102 394.167 298.879C394.167 299.605 394.022 300.252 393.732 300.822C393.453 301.392 393.033 301.843 392.473 302.174C391.914 302.495 391.24 302.656 390.453 302.656C389.386 302.656 388.546 302.423 387.935 301.957C387.334 301.48 386.909 300.812 386.661 299.952C386.422 299.092 386.303 298.019 386.303 296.735C386.303 292.942 387.64 291.046 390.313 291.046C391.349 291.046 392.163 291.326 392.753 291.885C393.354 292.445 393.706 293.134 393.81 293.953L392.178 293.953ZM390.298 296.641C389.665 296.641 389.127 296.833 388.681 297.216C388.246 297.589 388.028 298.133 388.028 298.848C388.028 299.563 388.23 300.133 388.635 300.558C389.049 300.972 389.624 301.179 390.36 301.179C391.012 301.179 391.525 300.977 391.898 300.573C392.282 300.169 392.473 299.63 392.473 298.957C392.473 298.252 392.287 297.693 391.914 297.278C391.551 296.854 391.012 296.641 390.298 296.641Z" fill="white"/>
<path d="M441.309 300.247C442.304 299.387 443.086 298.682 443.656 298.133C444.236 297.574 444.718 296.994 445.101 296.393C445.485 295.792 445.676 295.191 445.676 294.59C445.676 293.968 445.526 293.481 445.226 293.129C444.936 292.777 444.474 292.6 443.842 292.6C443.231 292.6 442.755 292.797 442.413 293.191C442.081 293.574 441.905 294.092 441.884 294.745L440.175 294.745C440.206 293.564 440.558 292.663 441.231 292.041C441.915 291.409 442.78 291.093 443.827 291.093C444.956 291.093 445.837 291.404 446.469 292.025C447.111 292.647 447.433 293.476 447.433 294.512C447.433 295.258 447.241 295.978 446.858 296.672C446.485 297.356 446.034 297.973 445.505 298.522C444.987 299.061 444.324 299.687 443.516 300.402L442.817 301.024L447.743 301.024L447.743 302.501L440.19 302.501L440.19 301.211L441.309 300.247ZM456.48 292.694L452.16 302.656L450.372 302.656L454.74 292.88L448.989 292.88L448.989 291.373L456.48 291.373L456.48 292.694Z" fill="white"/>
<g style="mix-blend-mode:soft-light" opacity="0.9">
<path d="M107.322 329.088L57.9821 329.088C55.699 329.088 53.8483 330.939 53.8483 333.222L53.8483 369.646C53.8483 371.929 55.699 373.78 57.9821 373.78L107.322 373.78C109.605 373.78 111.456 371.929 111.456 369.646L111.456 333.222C111.456 330.939 109.605 329.088 107.322 329.088Z" fill="white"/>
</g>
<g style="mix-blend-mode:soft-light" opacity="0.9">
<path d="M170.537 329.088L121.196 329.088C118.913 329.088 117.063 330.939 117.063 333.222L117.063 369.646C117.063 371.929 118.913 373.78 121.196 373.78L170.537 373.78C172.82 373.78 174.671 371.929 174.671 369.646L174.671 333.222C174.671 330.939 172.82 329.088 170.537 329.088Z" fill="white"/>
</g>
<g style="mix-blend-mode:soft-light" opacity="0.9">
<path d="M233.769 329.088L184.429 329.088C182.146 329.088 180.295 330.939 180.295 333.222L180.295 369.646C180.295 371.929 182.146 373.78 184.429 373.78L233.769 373.78C236.052 373.78 237.903 371.929 237.903 369.646L237.903 333.222C237.903 330.939 236.052 329.088 233.769 329.088Z" fill="white"/>
</g>
<g style="mix-blend-mode:soft-light" opacity="0.9">
<path d="M296.983 329.088L247.643 329.088C245.36 329.088 243.509 330.939 243.509 333.222L243.509 369.646C243.509 371.929 245.36 373.78 247.643 373.78L296.983 373.78C299.266 373.78 301.117 371.929 301.117 369.646L301.117 333.222C301.117 330.939 299.266 329.088 296.983 329.088Z" fill="white"/>
</g>
<g style="mix-blend-mode:soft-light" opacity="0.9">
<path d="M360.198 329.088L310.857 329.088C308.574 329.088 306.724 330.939 306.724 333.222L306.724 369.646C306.724 371.929 308.574 373.78 310.857 373.78L360.198 373.78C362.481 373.78 364.332 371.929 364.332 369.646L364.332 333.222C364.332 330.939 362.481 329.088 360.198 329.088Z" fill="white"/>
</g>
<g style="mix-blend-mode:soft-light" opacity="0.9">
<path d="M423.412 329.088L374.072 329.088C371.789 329.088 369.938 330.939 369.938 333.222L369.938 369.646C369.938 371.929 371.789 373.78 374.072 373.78L423.412 373.78C425.695 373.78 427.546 371.929 427.546 369.646L427.546 333.222C427.546 330.939 425.695 329.088 423.412 329.088Z" fill="white"/>
</g>
<g style="mix-blend-mode:soft-light" opacity="0.9">
<path d="M486.626 329.088L437.286 329.088C435.003 329.088 433.152 330.939 433.152 333.222L433.152 369.646C433.152 371.929 435.003 373.78 437.286 373.78L486.626 373.78C488.91 373.78 490.76 371.929 490.76 369.646L490.76 333.222C490.76 330.939 488.91 329.088 486.626 329.088Z" fill="white"/>
</g>
<path d="M62.005 350.882C62.9997 350.022 63.782 349.318 64.3519 348.769C64.9321 348.209 65.4139 347.629 65.7973 347.028C66.1806 346.427 66.3723 345.826 66.3723 345.225C66.3723 344.603 66.2221 344.116 65.9216 343.764C65.6315 343.412 65.1704 343.236 64.5384 343.236C63.9271 343.236 63.4504 343.433 63.1085 343.826C62.777 344.21 62.6008 344.728 62.5801 345.381L60.8705 345.381C60.9016 344.199 61.2538 343.298 61.9273 342.676C62.6112 342.044 63.4763 341.728 64.5228 341.728C65.6522 341.728 66.5329 342.039 67.1649 342.661C67.8073 343.282 68.1285 344.111 68.1285 345.147C68.1285 345.893 67.9369 346.614 67.5535 347.308C67.1805 347.992 66.7298 348.608 66.2013 349.157C65.6833 349.696 65.0202 350.323 64.212 351.038L63.5126 351.659L68.4394 351.659L68.4394 353.136L60.886 353.136L60.886 351.846L62.005 350.882ZM71.9075 347.37C70.83 346.831 70.2912 345.981 70.2912 344.821C70.2912 344.262 70.4311 343.749 70.7108 343.282C70.9906 342.816 71.4102 342.448 71.9697 342.179C72.5292 341.899 73.2131 341.759 74.0212 341.759C74.819 341.759 75.4977 341.899 76.0572 342.179C76.6271 342.448 77.0519 342.816 77.3317 343.282C77.6114 343.749 77.7513 344.262 77.7513 344.821C77.7513 345.401 77.601 345.914 77.3006 346.36C77.0105 346.795 76.6219 347.132 76.1349 347.37C76.7255 347.587 77.1918 347.945 77.5337 348.442C77.8756 348.929 78.0466 349.504 78.0466 350.167C78.0466 350.841 77.8756 351.437 77.5337 351.955C77.1918 352.473 76.7152 352.872 76.1038 353.151C75.4925 353.431 74.7983 353.571 74.0212 353.571C73.2441 353.571 72.5499 353.431 71.9386 353.151C71.3377 352.872 70.8662 352.473 70.5243 351.955C70.1824 351.437 70.0114 350.841 70.0114 350.167C70.0114 349.494 70.1824 348.914 70.5243 348.427C70.8662 347.94 71.3273 347.587 71.9075 347.37ZM76.0572 345.039C76.0572 344.458 75.8759 344.013 75.5133 343.702C75.1506 343.391 74.6533 343.236 74.0212 343.236C73.3996 343.236 72.9074 343.391 72.5448 343.702C72.1821 344.013 72.0008 344.464 72.0008 345.054C72.0008 345.572 72.1873 345.997 72.5603 346.329C72.9437 346.65 73.4306 346.81 74.0212 346.81C74.6118 346.81 75.0988 346.645 75.4822 346.313C75.8655 345.981 76.0572 345.557 76.0572 345.039ZM74.0212 348.147C73.3374 348.147 72.7779 348.318 72.3427 348.66C71.9179 348.991 71.7055 349.473 71.7055 350.105C71.7055 350.696 71.9127 351.178 72.3272 351.551C72.7416 351.913 73.3063 352.095 74.0212 352.095C74.7258 352.095 75.2801 351.908 75.6842 351.535C76.0987 351.162 76.3059 350.685 76.3059 350.105C76.3059 349.484 76.0935 349.002 75.6687 348.66C75.2542 348.318 74.7051 348.147 74.0212 348.147Z" fill="white"/>
<path d="M125.219 350.882C126.214 350.022 126.996 349.318 127.566 348.769C128.147 348.209 128.628 347.629 129.012 347.028C129.395 346.427 129.587 345.826 129.587 345.225C129.587 344.603 129.436 344.116 129.136 343.764C128.846 343.412 128.385 343.236 127.753 343.236C127.141 343.236 126.665 343.433 126.323 343.826C125.991 344.21 125.815 344.728 125.795 345.381L124.085 345.381C124.116 344.199 124.468 343.298 125.142 342.676C125.826 342.044 126.691 341.728 127.737 341.728C128.867 341.728 129.747 342.039 130.379 342.661C131.022 343.282 131.343 344.111 131.343 345.147C131.343 345.893 131.151 346.614 130.768 347.308C130.395 347.992 129.944 348.608 129.416 349.157C128.898 349.696 128.235 350.323 127.426 351.038L126.727 351.659L131.654 351.659L131.654 353.136L124.1 353.136L124.1 351.846L125.219 350.882ZM135.417 350.214C135.521 350.732 135.744 351.126 136.086 351.395C136.427 351.665 136.889 351.799 137.469 351.799C138.204 351.799 138.743 351.509 139.085 350.929C139.427 350.349 139.598 349.359 139.598 347.96C139.349 348.313 138.997 348.587 138.541 348.784C138.096 348.971 137.609 349.064 137.08 349.064C136.407 349.064 135.795 348.929 135.246 348.66C134.697 348.38 134.262 347.971 133.941 347.432C133.63 346.883 133.475 346.22 133.475 345.443C133.475 344.303 133.806 343.396 134.469 342.723C135.143 342.039 136.065 341.697 137.236 341.697C138.645 341.697 139.645 342.169 140.235 343.111C140.836 344.044 141.137 345.479 141.137 347.417C141.137 348.753 141.023 349.846 140.795 350.696C140.577 351.545 140.194 352.188 139.645 352.623C139.095 353.058 138.334 353.276 137.36 353.276C136.251 353.276 135.397 352.986 134.796 352.405C134.195 351.825 133.858 351.095 133.785 350.214L135.417 350.214ZM137.391 347.572C138.013 347.572 138.5 347.38 138.852 346.997C139.215 346.603 139.396 346.085 139.396 345.443C139.396 344.728 139.204 344.173 138.821 343.78C138.448 343.376 137.935 343.174 137.282 343.174C136.63 343.174 136.111 343.381 135.728 343.795C135.355 344.199 135.169 344.733 135.169 345.396C135.169 346.028 135.35 346.551 135.713 346.966C136.086 347.37 136.645 347.572 137.391 347.572Z" fill="white"/>
<path d="M187.424 344.759C187.486 343.795 187.854 343.044 188.527 342.505C189.211 341.966 190.081 341.697 191.138 341.697C191.863 341.697 192.49 341.827 193.019 342.086C193.547 342.345 193.946 342.697 194.215 343.142C194.485 343.588 194.619 344.091 194.619 344.65C194.619 345.292 194.449 345.842 194.107 346.297C193.765 346.753 193.355 347.059 192.879 347.214L192.879 347.277C193.49 347.463 193.967 347.805 194.309 348.302C194.651 348.789 194.822 349.416 194.822 350.183C194.822 350.794 194.682 351.338 194.402 351.815C194.122 352.291 193.708 352.67 193.159 352.949C192.609 353.219 191.951 353.354 191.185 353.354C190.066 353.354 189.144 353.069 188.418 352.499C187.703 351.918 187.32 351.09 187.268 350.012L188.978 350.012C189.019 350.561 189.232 351.012 189.615 351.364C189.998 351.706 190.516 351.877 191.169 351.877C191.801 351.877 192.288 351.706 192.63 351.364C192.972 351.012 193.143 350.561 193.143 350.012C193.143 349.287 192.91 348.774 192.444 348.473C191.988 348.163 191.283 348.007 190.33 348.007L189.926 348.007L189.926 346.546L190.345 346.546C191.185 346.536 191.822 346.396 192.257 346.127C192.703 345.857 192.925 345.432 192.925 344.852C192.925 344.355 192.765 343.961 192.444 343.671C192.122 343.37 191.667 343.22 191.076 343.22C190.496 343.22 190.045 343.37 189.724 343.671C189.403 343.961 189.211 344.324 189.149 344.759L187.424 344.759ZM196.683 347.479C196.683 345.686 196.983 344.287 197.584 343.282C198.195 342.267 199.242 341.759 200.724 341.759C202.205 341.759 203.247 342.267 203.847 343.282C204.459 344.287 204.764 345.686 204.764 347.479C204.764 349.292 204.459 350.711 203.847 351.737C203.247 352.753 202.205 353.26 200.724 353.26C199.242 353.26 198.195 352.753 197.584 351.737C196.983 350.711 196.683 349.292 196.683 347.479ZM203.024 347.479C203.024 346.639 202.967 345.93 202.853 345.349C202.749 344.769 202.532 344.298 202.2 343.935C201.868 343.562 201.376 343.376 200.724 343.376C200.071 343.376 199.579 343.562 199.247 343.935C198.916 344.298 198.693 344.769 198.579 345.349C198.475 345.93 198.423 346.639 198.423 347.479C198.423 348.349 198.475 349.079 198.579 349.67C198.682 350.261 198.9 350.737 199.232 351.1C199.573 351.463 200.071 351.644 200.724 351.644C201.376 351.644 201.868 351.463 202.2 351.1C202.542 350.737 202.765 350.261 202.868 349.67C202.972 349.079 203.024 348.349 203.024 347.479Z" fill="white"/>
<g opacity="0.35">
<path d="M254.428 343.578L254.428 341.961L257.661 341.961L257.661 353.291L255.873 353.291L255.873 343.578L254.428 343.578Z" fill="white"/>
</g>
<g opacity="0.35">
<path d="M318.855 350.882C319.849 350.022 320.632 349.318 321.201 348.769C321.782 348.209 322.263 347.629 322.647 347.028C323.03 346.427 323.222 345.826 323.222 345.225C323.222 344.603 323.072 344.116 322.771 343.764C322.481 343.412 322.02 343.236 321.388 343.236C320.777 343.236 320.3 343.433 319.958 343.826C319.626 344.21 319.45 344.728 319.43 345.381L317.72 345.381C317.751 344.199 318.103 343.298 318.777 342.676C319.461 342.044 320.326 341.728 321.372 341.728C322.502 341.728 323.382 342.039 324.014 342.661C324.657 343.282 324.978 344.111 324.978 345.147C324.978 345.893 324.786 346.614 324.403 347.308C324.03 347.992 323.579 348.608 323.051 349.157C322.533 349.696 321.87 350.323 321.062 351.038L320.362 351.659L325.289 351.659L325.289 353.136L317.736 353.136L317.736 351.846L318.855 350.882Z" fill="white"/>
</g>
<g opacity="0.35">
<path d="M381.059 344.759C381.121 343.795 381.489 343.044 382.162 342.505C382.846 341.966 383.716 341.697 384.773 341.697C385.499 341.697 386.125 341.827 386.654 342.086C387.182 342.345 387.581 342.697 387.851 343.142C388.12 343.588 388.255 344.091 388.255 344.65C388.255 345.292 388.084 345.842 387.742 346.297C387.4 346.753 386.991 347.059 386.514 347.214L386.514 347.277C387.125 347.463 387.602 347.805 387.944 348.302C388.286 348.789 388.457 349.416 388.457 350.183C388.457 350.794 388.317 351.338 388.037 351.815C387.757 352.291 387.343 352.67 386.794 352.949C386.245 353.219 385.587 353.354 384.82 353.354C383.701 353.354 382.779 353.069 382.053 352.499C381.338 351.918 380.955 351.09 380.903 350.012L382.613 350.012C382.654 350.561 382.867 351.012 383.25 351.364C383.633 351.706 384.152 351.877 384.804 351.877C385.436 351.877 385.923 351.706 386.265 351.364C386.607 351.012 386.778 350.561 386.778 350.012C386.778 349.287 386.545 348.774 386.079 348.473C385.623 348.163 384.918 348.007 383.965 348.007L383.561 348.007L383.561 346.546L383.981 346.546C384.82 346.536 385.457 346.396 385.892 346.127C386.338 345.857 386.561 345.432 386.561 344.852C386.561 344.355 386.4 343.961 386.079 343.671C385.758 343.37 385.302 343.22 384.711 343.22C384.131 343.22 383.68 343.37 383.359 343.671C383.038 343.961 382.846 344.324 382.784 344.759L381.059 344.759Z" fill="white"/>
</g>
<g opacity="0.35">
<path d="M444.087 350.929L444.087 349.592L449.309 342.101L451.453 342.101L451.453 349.39L452.899 349.39L452.899 350.929L451.453 350.929L451.453 353.291L449.713 353.291L449.713 350.929L444.087 350.929ZM449.791 343.904L446.123 349.39L449.791 349.39L449.791 343.904Z" fill="white"/>
</g>
<path d="M218.546 96.5163C217.557 96.5163 216.668 96.3468 215.877 96.0079C215.086 95.6548 214.465 95.1605 214.013 94.525C213.561 93.8895 213.335 93.148 213.335 92.3007L215.919 92.3007C215.976 92.9362 216.223 93.4587 216.661 93.8683C217.113 94.2778 217.741 94.4826 218.546 94.4826C219.379 94.4826 220.029 94.2849 220.495 93.8895C220.961 93.4799 221.194 92.9574 221.194 92.3219C221.194 91.8276 221.046 91.4251 220.749 91.1144C220.467 90.8037 220.107 90.5636 219.669 90.3941C219.245 90.2247 218.652 90.0411 217.889 89.8434C216.929 89.5892 216.145 89.335 215.538 89.0807C214.945 88.8124 214.436 88.4029 214.013 87.8521C213.589 87.3013 213.377 86.5669 213.377 85.649C213.377 84.8016 213.589 84.0602 214.013 83.4247C214.436 82.7892 215.03 82.3019 215.792 81.963C216.555 81.624 217.437 81.4546 218.44 81.4546C219.866 81.4546 221.032 81.8147 221.935 82.5349C222.853 83.2411 223.362 84.2155 223.461 85.4583L220.792 85.4583C220.749 84.9217 220.495 84.4627 220.029 84.0814C219.563 83.7001 218.949 83.5094 218.186 83.5094C217.494 83.5094 216.929 83.6859 216.491 84.039C216.053 84.3921 215.834 84.9005 215.834 85.5642C215.834 86.0162 215.969 86.3904 216.237 86.687C216.519 86.9694 216.872 87.1954 217.296 87.3649C217.72 87.5343 218.299 87.7179 219.033 87.9156C220.008 88.184 220.799 88.4523 221.406 88.7206C222.027 88.989 222.55 89.4056 222.973 89.9705C223.411 90.5212 223.63 91.2627 223.63 92.1948C223.63 92.9433 223.425 93.6494 223.016 94.3132C222.62 94.9769 222.034 95.5136 221.258 95.9231C220.495 96.3186 219.591 96.5163 218.546 96.5163ZM228.895 83.5941L228.895 87.9156L233.979 87.9156L233.979 89.8857L228.895 89.8857L228.895 94.3979L234.614 94.3979L234.614 96.368L226.48 96.368L226.48 81.624L234.614 81.624L234.614 83.5941L228.895 83.5941ZM247.884 86.0303C247.884 86.7788 247.708 87.4849 247.355 88.1487C247.001 88.8124 246.437 89.3561 245.66 89.7798C244.883 90.1894 243.887 90.3941 242.673 90.3941L240.004 90.3941L240.004 96.368L237.589 96.368L237.589 81.6452L242.673 81.6452C243.803 81.6452 244.756 81.8429 245.533 82.2384C246.324 82.6197 246.91 83.1422 247.291 83.806C247.686 84.4697 247.884 85.2112 247.884 86.0303ZM242.673 88.424C243.591 88.424 244.276 88.2193 244.728 87.8097C245.18 87.386 245.406 86.7929 245.406 86.0303C245.406 84.4203 244.495 83.6153 242.673 83.6153L240.004 83.6153L240.004 88.424L242.673 88.424ZM259.699 81.6452L259.699 83.6153L255.78 83.6153L255.78 96.368L253.365 96.368L253.365 83.6153L249.425 83.6153L249.425 81.6452L259.699 81.6452ZM264.56 83.5941L264.56 87.9156L269.644 87.9156L269.644 89.8857L264.56 89.8857L264.56 94.3979L270.279 94.3979L270.279 96.368L262.145 96.368L262.145 81.624L270.279 81.624L270.279 83.5941L264.56 83.5941ZM288.76 81.6452L288.76 96.368L286.345 96.368L286.345 86.2845L281.854 96.368L280.181 96.368L275.669 86.2845L275.669 96.368L273.254 96.368L273.254 81.6452L275.859 81.6452L281.028 93.1904L286.176 81.6452L288.76 81.6452ZM299.815 88.8054C300.606 88.9466 301.276 89.3632 301.827 90.0552C302.378 90.7472 302.653 91.531 302.653 92.4066C302.653 93.1551 302.456 93.833 302.06 94.4403C301.679 95.0334 301.121 95.5065 300.387 95.8596C299.652 96.1985 298.798 96.368 297.823 96.368L291.934 96.368L291.934 81.6452L297.548 81.6452C298.551 81.6452 299.412 81.8147 300.133 82.1536C300.853 82.4926 301.396 82.9516 301.764 83.5306C302.131 84.0955 302.314 84.731 302.314 85.4371C302.314 86.2845 302.088 86.9906 301.637 87.5555C301.185 88.1204 300.577 88.537 299.815 88.8054ZM294.349 87.8309L297.336 87.8309C298.127 87.8309 298.741 87.6544 299.179 87.3013C299.631 86.9341 299.857 86.4116 299.857 85.7337C299.857 85.0699 299.631 84.5545 299.179 84.1873C298.741 83.806 298.127 83.6153 297.336 83.6153L294.349 83.6153L294.349 87.8309ZM297.612 94.3979C298.431 94.3979 299.073 94.2002 299.539 93.8047C300.005 93.4093 300.238 92.8585 300.238 92.1524C300.238 91.4322 299.991 90.8602 299.497 90.4365C299.003 90.0128 298.346 89.801 297.527 89.801L294.349 89.801L294.349 94.3979L297.612 94.3979ZM307.693 83.5941L307.693 87.9156L312.777 87.9156L312.777 89.8857L307.693 89.8857L307.693 94.3979L313.412 94.3979L313.412 96.368L305.278 96.368L305.278 81.624L313.412 81.624L313.412 83.5941L307.693 83.5941ZM324.034 96.368L320.645 90.4789L318.802 90.4789L318.802 96.368L316.387 96.368L316.387 81.6452L321.471 81.6452C322.601 81.6452 323.554 81.8429 324.331 82.2384C325.122 82.6338 325.708 83.1634 326.089 83.8272C326.484 84.4909 326.682 85.2324 326.682 86.0515C326.682 87.0118 326.4 87.8874 325.835 88.6783C325.284 89.455 324.43 89.9846 323.272 90.267L326.915 96.368L324.034 96.368ZM318.802 88.5512L321.471 88.5512C322.375 88.5512 323.053 88.3252 323.505 87.8733C323.971 87.4213 324.204 86.8141 324.204 86.0515C324.204 85.2888 323.978 84.6957 323.526 84.272C323.074 83.8342 322.389 83.6153 321.471 83.6153L318.802 83.6153L318.802 88.5512Z" fill="white"/>
<path d="M368.288 80.3646L375.881 87.9404L368.288 95.5339" stroke="white" stroke-width="1.77419" stroke-linecap="round" stroke-linejoin="round"/>
<path d="M176.321 80.3646L168.745 87.9404L176.321 95.5339" stroke="white" stroke-width="1.77419" stroke-linecap="round" stroke-linejoin="round"/>
<g style="mix-blend-mode:soft-light" opacity="0.9">
<path d="M441.42 57.1404C441.42 60.5824 438.617 63.3856 435.175 63.3856C431.733 63.3856 428.93 60.5824 428.93 57.1404C428.93 53.6985 431.733 50.8953 435.175 50.8953C438.617 50.8953 441.42 53.6985 441.42 57.1404Z" fill="white"/>
</g>
<g style="mix-blend-mode:soft-light" opacity="0.9">
<path d="M466.081 57.1404C466.081 60.5824 463.278 63.3856 459.836 63.3856C456.394 63.3856 453.591 60.5824 453.591 57.1404C453.591 53.6985 456.394 50.8953 459.836 50.8953C463.278 50.8953 466.081 53.6985 466.081 57.1404Z" fill="white"/>
</g>
<g style="mix-blend-mode:soft-light" opacity="0.9">
<path d="M490.76 57.1404C490.76 60.5824 487.957 63.3856 484.515 63.3856C481.073 63.3856 478.27 60.5824 478.27 57.1404C478.27 53.6985 481.073 50.8953 484.515 50.8953C487.957 50.8953 490.76 53.6985 490.76 57.1404Z" fill="white"/>
</g>
<g style="mix-blend-mode:soft-light" opacity="0.9">
<path d="M75.4935 57.1404C75.4935 63.1194 70.6499 67.963 64.6708 67.963C58.6918 67.963 53.8483 63.1194 53.8483 57.1404C53.8483 51.1614 58.6918 46.3179 64.6708 46.3179C70.6499 46.3179 75.4935 51.1614 75.4935 57.1404Z" fill="white"/>
</g>
<g filter="url(#filter1_d_907_2230)">
<path d="M271.985 301.695C243.563 301.695 220.463 278.577 220.463 250.172C220.463 221.767 243.58 198.65 271.985 198.65C300.39 198.65 323.507 221.767 323.507 250.172C323.507 278.577 300.39 301.695 271.985 301.695Z" fill="white"/>
</g>
<g filter="url(#filter2_d_907_2230)">
<path d="M271.985 284.574C290.984 284.574 306.386 269.172 306.386 250.172C306.386 231.173 290.984 215.771 271.985 215.771C252.986 215.771 237.583 231.173 237.583 250.172C237.583 269.172 252.986 284.574 271.985 284.574Z" fill="url(#paint1_linear_907_2230)"/>
</g>
<g filter="url(#filter3_d_907_2230)">
<path d="M284.262 237.309C281.477 239.208 278.851 241.266 276.332 243.448C272.003 247.209 268.011 251.308 264.356 255.743C263.256 255.069 262.138 254.413 261.003 253.792C259.885 253.188 258.767 252.603 257.596 252.071C256.425 251.538 255.237 251.006 253.977 250.58C254.562 251.787 255.237 252.887 255.911 253.987C256.603 255.069 257.312 256.116 258.058 257.145C259.548 259.185 261.109 261.137 262.777 263L264.658 265.111L267.567 262.84C272.837 258.742 277.645 254.146 282.009 249.143C284.191 246.642 286.25 244.016 288.166 241.23C290.064 238.445 291.838 235.517 293.258 232.253C289.975 233.672 287.066 235.429 284.262 237.327L284.262 237.309Z" fill="white"/>
</g>
<g filter="url(#filter4_d_907_2230)">
<path d="M524.665 355.24L355.78 355.24C341.592 355.24 330.09 366.742 330.09 380.93L330.09 524.675C330.09 538.863 341.592 550.365 355.78 550.365L524.665 550.365C538.853 550.365 550.355 538.863 550.355 524.675L550.355 380.93C550.355 366.742 538.853 355.24 524.665 355.24Z" fill="white"/>
</g>
<path d="M389.898 401.173L367.188 401.173C364.58 401.173 362.486 399.062 362.486 396.472C362.486 393.864 364.598 391.77 367.188 391.77L389.898 391.77C392.506 391.77 394.599 393.882 394.599 396.472C394.599 399.08 392.488 401.173 389.898 401.173Z" fill="#E9EBF5"/>
<path d="M513.257 401.173L422.064 401.173C419.456 401.173 417.362 399.062 417.362 396.472C417.362 393.864 419.474 391.77 422.064 391.77L513.257 391.77C515.865 391.77 517.959 393.882 517.959 396.472C517.959 399.08 515.848 401.173 513.257 401.173Z" fill="#E9EBF5"/>
<path d="M389.898 423.706L367.188 423.706C364.58 423.706 362.486 421.594 362.486 419.004C362.486 416.396 364.598 414.302 367.188 414.302L389.898 414.302C392.506 414.302 394.599 416.414 394.599 419.004C394.599 421.612 392.488 423.706 389.898 423.706Z" fill="#FFBD00"/>
<path d="M513.257 423.706L422.064 423.706C419.456 423.706 417.362 421.594 417.362 419.004C417.362 416.396 419.474 414.302 422.064 414.302L513.257 414.302C515.865 414.302 517.959 416.414 517.959 419.004C517.959 421.612 515.848 423.706 513.257 423.706Z" fill="#FFBD00"/>
<path d="M389.898 446.238L367.188 446.238C364.58 446.238 362.486 444.127 362.486 441.536C362.486 438.928 364.598 436.835 367.188 436.835L389.898 436.835C392.506 436.835 394.599 438.946 394.599 441.536C394.599 444.144 392.488 446.238 389.898 446.238Z" fill="#80A7FF"/>
<path d="M513.257 446.238L422.064 446.238C419.456 446.238 417.362 444.127 417.362 441.536C417.362 438.928 419.474 436.835 422.064 436.835L513.257 436.835C515.865 436.835 517.959 438.946 517.959 441.536C517.959 444.144 515.848 446.238 513.257 446.238Z" fill="#80A7FF"/>
<path d="M389.898 468.77L367.188 468.77C364.58 468.77 362.486 466.659 362.486 464.068C362.486 461.46 364.598 459.367 367.188 459.367L389.898 459.367C392.506 459.367 394.599 461.478 394.599 464.068C394.599 466.677 392.488 468.77 389.898 468.77Z" fill="#E9EBF5"/>
<path d="M513.257 468.77L422.064 468.77C419.456 468.77 417.362 466.659 417.362 464.068C417.362 461.46 419.474 459.367 422.064 459.367L513.257 459.367C515.865 459.367 517.959 461.478 517.959 464.068C517.959 466.677 515.848 468.77 513.257 468.77Z" fill="#E9EBF5"/>
<path d="M389.898 491.302L367.188 491.302C364.58 491.302 362.486 489.191 362.486 486.601C362.486 483.993 364.598 481.899 367.188 481.899L389.898 481.899C392.506 481.899 394.599 484.01 394.599 486.601C394.599 489.209 392.488 491.302 389.898 491.302Z" fill="#546CFF"/>
<path d="M513.257 491.302L422.064 491.302C419.456 491.302 417.362 489.191 417.362 486.601C417.362 483.993 419.474 481.899 422.064 481.899L513.257 481.899C515.865 481.899 517.959 484.01 517.959 486.601C517.959 489.209 515.848 491.302 513.257 491.302Z" fill="#546CFF"/>
<path d="M389.898 513.835L367.188 513.835C364.58 513.835 362.486 511.723 362.486 509.133C362.486 506.525 364.598 504.431 367.188 504.431L389.898 504.431C392.506 504.431 394.599 506.543 394.599 509.133C394.599 511.741 392.488 513.835 389.898 513.835Z" fill="#E9EBF5"/>
<path d="M513.257 513.835L422.064 513.835C419.456 513.835 417.362 511.723 417.362 509.133C417.362 506.525 419.474 504.431 422.064 504.431L513.257 504.431C515.865 504.431 517.959 506.543 517.959 509.133C517.959 511.741 515.848 513.835 513.257 513.835Z" fill="#E9EBF5"/>
<g filter="url(#filter5_d_907_2230)">
<path d="M537.421 384.319C591.833 384.319 635.942 340.21 635.942 285.798C635.942 231.387 591.833 187.277 537.421 187.277C483.01 187.277 438.901 231.387 438.901 285.798C438.901 340.21 483.01 384.319 537.421 384.319Z" fill="url(#paint2_linear_907_2230)"/>
</g>
<path d="M596.839 345.216C564.07 377.985 510.773 377.985 478.004 345.216C445.235 312.446 445.235 259.15 478.004 226.38C510.773 193.611 564.07 193.611 596.839 226.38C629.609 259.15 629.609 312.446 596.839 345.216Z" fill="url(#paint3_linear_907_2230)"/>
<g style="mix-blend-mode:soft-light" opacity="0.9">
<path d="M596.875 226.38C564.105 193.611 510.809 193.611 478.039 226.38L596.875 345.216C629.644 312.446 629.644 259.15 596.875 226.38Z" fill="white"/>
</g>
<path d="M570.794 281.7L541.644 281.7L541.644 240.556C541.644 238.356 539.87 236.582 537.67 236.582C535.47 236.582 533.696 238.356 533.696 240.556L533.696 285.674C533.696 287.874 535.47 289.648 537.67 289.648L570.794 289.648C572.994 289.648 574.768 287.874 574.768 285.674C574.768 283.474 572.994 281.7 570.794 281.7Z" fill="url(#paint4_linear_907_2230)"/>
<path d="M537.422 210.821C536.73 210.821 536.162 211.388 536.162 212.08L536.162 218.929C536.162 219.621 536.73 220.188 537.422 220.188C538.114 220.188 538.681 219.621 538.681 218.929L538.681 212.08C538.681 211.388 538.114 210.821 537.422 210.821Z" fill="url(#paint5_linear_907_2230)"/>
<path d="M537.422 351.407C536.73 351.407 536.162 351.975 536.162 352.667L536.162 359.516C536.162 360.207 536.73 360.775 537.422 360.775C538.114 360.775 538.681 360.207 538.681 359.516L538.681 352.667C538.681 351.975 538.114 351.407 537.422 351.407Z" fill="url(#paint6_linear_907_2230)"/>
<path d="M470.552 284.538L463.704 284.538C463.012 284.538 462.444 285.106 462.444 285.798C462.444 286.49 463.012 287.058 463.704 287.058L470.552 287.058C471.244 287.058 471.812 286.49 471.812 285.798C471.812 285.106 471.244 284.538 470.552 284.538Z" fill="url(#paint7_linear_907_2230)"/>
<path d="M611.139 284.538L604.291 284.538C603.599 284.538 603.031 285.106 603.031 285.798C603.031 286.49 603.599 287.058 604.291 287.058L611.139 287.058C611.831 287.058 612.399 286.49 612.399 285.798C612.399 285.106 611.831 284.538 611.139 284.538Z" fill="url(#paint8_linear_907_2230)"/>
<path d="M486.183 232.785C485.686 232.288 484.905 232.288 484.409 232.785C483.912 233.282 483.912 234.063 484.409 234.559L489.252 239.403C489.749 239.9 490.53 239.9 491.026 239.403C491.523 238.906 491.523 238.126 491.026 237.629L486.183 232.785Z" fill="url(#paint9_linear_907_2230)"/>
<path d="M585.591 332.193C585.094 331.696 584.313 331.696 583.816 332.193C583.32 332.69 583.32 333.47 583.816 333.967L588.66 338.811C589.157 339.308 589.937 339.308 590.434 338.811C590.931 338.314 590.931 337.533 590.434 337.037L585.591 332.193Z" fill="url(#paint10_linear_907_2230)"/>
<path d="M489.252 332.193L484.409 337.037C483.912 337.533 483.912 338.314 484.409 338.811C484.905 339.308 485.686 339.308 486.183 338.811L491.026 333.967C491.523 333.47 491.523 332.69 491.026 332.193C490.53 331.696 489.749 331.696 489.252 332.193Z" fill="url(#paint11_linear_907_2230)"/>
<path d="M588.66 232.785L583.816 237.629C583.32 238.126 583.32 238.906 583.816 239.403C584.313 239.9 585.094 239.9 585.591 239.403L590.434 234.559C590.931 234.063 590.931 233.282 590.434 232.785C589.937 232.288 589.157 232.288 588.66 232.785Z" fill="url(#paint12_linear_907_2230)"/>
<path d="M537.422 210.821C536.73 210.821 536.162 211.388 536.162 212.08L536.162 218.929C536.162 219.621 536.73 220.188 537.422 220.188C538.114 220.188 538.681 219.621 538.681 218.929L538.681 212.08C538.681 211.388 538.114 210.821 537.422 210.821Z" fill="url(#paint13_linear_907_2230)"/>
<path d="M537.422 351.407C536.73 351.407 536.162 351.975 536.162 352.667L536.162 359.516C536.162 360.207 536.73 360.775 537.422 360.775C538.114 360.775 538.681 360.207 538.681 359.516L538.681 352.667C538.681 351.975 538.114 351.407 537.422 351.407Z" fill="url(#paint14_linear_907_2230)"/>
<path d="M470.552 284.538L463.704 284.538C463.012 284.538 462.444 285.106 462.444 285.798C462.444 286.49 463.012 287.058 463.704 287.058L470.552 287.058C471.244 287.058 471.812 286.49 471.812 285.798C471.812 285.106 471.244 284.538 470.552 284.538Z" fill="url(#paint15_linear_907_2230)"/>
<path d="M611.139 284.538L604.291 284.538C603.599 284.538 603.031 285.106 603.031 285.798C603.031 286.49 603.599 287.058 604.291 287.058L611.139 287.058C611.831 287.058 612.399 286.49 612.399 285.798C612.399 285.106 611.831 284.538 611.139 284.538Z" fill="url(#paint16_linear_907_2230)"/>
<path d="M486.183 232.785C485.686 232.288 484.905 232.288 484.409 232.785C483.912 233.282 483.912 234.063 484.409 234.559L489.252 239.403C489.749 239.9 490.53 239.9 491.026 239.403C491.523 238.906 491.523 238.126 491.026 237.629L486.183 232.785Z" fill="url(#paint17_linear_907_2230)"/>
<path d="M585.591 332.193C585.094 331.696 584.313 331.696 583.816 332.193C583.32 332.69 583.32 333.47 583.816 333.967L588.66 338.811C589.157 339.308 589.937 339.308 590.434 338.811C590.931 338.314 590.931 337.533 590.434 337.037L585.591 332.193Z" fill="url(#paint18_linear_907_2230)"/>
<path d="M489.252 332.193L484.409 337.037C483.912 337.533 483.912 338.314 484.409 338.811C484.905 339.308 485.686 339.308 486.183 338.811L491.026 333.967C491.523 333.47 491.523 332.69 491.026 332.193C490.53 331.696 489.749 331.696 489.252 332.193Z" fill="url(#paint19_linear_907_2230)"/>
<path d="M588.66 232.785L583.816 237.629C583.32 238.126 583.32 238.906 583.816 239.403C584.313 239.9 585.094 239.9 585.591 239.403L590.434 234.559C590.931 234.063 590.931 233.282 590.434 232.785C589.937 232.288 589.157 232.288 588.66 232.785Z" fill="url(#paint20_linear_907_2230)"/>
<defs>
<filter id="filter0_d_907_2230" x="0.16135" y="0.437387" width="544.303" height="434.481" filterUnits="userSpaceOnUse" color-interpolation-filters="sRGB">
<feFlood flood-opacity="0" result="BackgroundImageFix"/>
<feColorMatrix in="SourceAlpha" type="matrix" values="0 0 0 0 0 0 0 0 0 0 0 0 0 0 0 0 0 0 127 0" result="hardAlpha"/>
<feOffset dy="8.87095"/>
<feGaussianBlur stdDeviation="12.4193"/>
<feColorMatrix type="matrix" values="0 0 0 0 0.329412 0 0 0 0 0.423529 0 0 0 0 1 0 0 0 0.5 0"/>
<feBlend mode="normal" in2="BackgroundImageFix" result="effect1_dropShadow_907_2230"/>
<feBlend mode="normal" in="SourceGraphic" in2="effect1_dropShadow_907_2230" result="shape"/>
</filter>
<filter id="filter1_d_907_2230" x="202.721" y="186.23" width="138.529" height="138.529" filterUnits="userSpaceOnUse" color-interpolation-filters="sRGB">
<feFlood flood-opacity="0" result="BackgroundImageFix"/>
<feColorMatrix in="SourceAlpha" type="matrix" values="0 0 0 0 0 0 0 0 0 0 0 0 0 0 0 0 0 0 127 0" result="hardAlpha"/>
<feOffset dy="5.32257"/>
<feGaussianBlur stdDeviation="8.87095"/>
<feColorMatrix type="matrix" values="0 0 0 0 0.329412 0 0 0 0 0.423529 0 0 0 0 1 0 0 0 0.5 0"/>
<feBlend mode="normal" in2="BackgroundImageFix" result="effect1_dropShadow_907_2230"/>
<feBlend mode="normal" in="SourceGraphic" in2="effect1_dropShadow_907_2230" result="shape"/>
</filter>
<filter id="filter2_d_907_2230" x="219.842" y="203.351" width="104.287" height="104.287" filterUnits="userSpaceOnUse" color-interpolation-filters="sRGB">
<feFlood flood-opacity="0" result="BackgroundImageFix"/>
<feColorMatrix in="SourceAlpha" type="matrix" values="0 0 0 0 0 0 0 0 0 0 0 0 0 0 0 0 0 0 127 0" result="hardAlpha"/>
<feOffset dy="5.32257"/>
<feGaussianBlur stdDeviation="8.87095"/>
<feColorMatrix type="matrix" values="0 0 0 0 1 0 0 0 0 0.611765 0 0 0 0 0.00392157 0 0 0 0.5 0"/>
<feBlend mode="normal" in2="BackgroundImageFix" result="effect1_dropShadow_907_2230"/>
<feBlend mode="normal" in="SourceGraphic" in2="effect1_dropShadow_907_2230" result="shape"/>
</filter>
<filter id="filter3_d_907_2230" x="236.235" y="219.834" width="74.7644" height="68.3418" filterUnits="userSpaceOnUse" color-interpolation-filters="sRGB">
<feFlood flood-opacity="0" result="BackgroundImageFix"/>
<feColorMatrix in="SourceAlpha" type="matrix" values="0 0 0 0 0 0 0 0 0 0 0 0 0 0 0 0 0 0 127 0" result="hardAlpha"/>
<feOffset dy="5.32257"/>
<feGaussianBlur stdDeviation="8.87095"/>
<feColorMatrix type="matrix" values="0 0 0 0 1 0 0 0 0 0.615686 0 0 0 0 0.00392157 0 0 0 0.5 0"/>
<feBlend mode="normal" in2="BackgroundImageFix" result="effect1_dropShadow_907_2230"/>
<feBlend mode="normal" in="SourceGraphic" in2="effect1_dropShadow_907_2230" result="shape"/>
</filter>
<filter id="filter4_d_907_2230" x="312.348" y="342.82" width="255.749" height="230.609" filterUnits="userSpaceOnUse" color-interpolation-filters="sRGB">
<feFlood flood-opacity="0" result="BackgroundImageFix"/>
<feColorMatrix in="SourceAlpha" type="matrix" values="0 0 0 0 0 0 0 0 0 0 0 0 0 0 0 0 0 0 127 0" result="hardAlpha"/>
<feOffset dy="5.32257"/>
<feGaussianBlur stdDeviation="8.87095"/>
<feColorMatrix type="matrix" values="0 0 0 0 0.329412 0 0 0 0 0.423529 0 0 0 0 1 0 0 0 0.5 0"/>
<feBlend mode="normal" in2="BackgroundImageFix" result="effect1_dropShadow_907_2230"/>
<feBlend mode="normal" in="SourceGraphic" in2="effect1_dropShadow_907_2230" result="shape"/>
</filter>
<filter id="filter5_d_907_2230" x="421.159" y="174.858" width="232.525" height="232.525" filterUnits="userSpaceOnUse" color-interpolation-filters="sRGB">
<feFlood flood-opacity="0" result="BackgroundImageFix"/>
<feColorMatrix in="SourceAlpha" type="matrix" values="0 0 0 0 0 0 0 0 0 0 0 0 0 0 0 0 0 0 127 0" result="hardAlpha"/>
<feOffset dy="5.32257"/>
<feGaussianBlur stdDeviation="8.87095"/>
<feColorMatrix type="matrix" values="0 0 0 0 0.329412 0 0 0 0 0.423529 0 0 0 0 1 0 0 0 0.5 0"/>
<feBlend mode="normal" in2="BackgroundImageFix" result="effect1_dropShadow_907_2230"/>
<feBlend mode="normal" in="SourceGraphic" in2="effect1_dropShadow_907_2230" result="shape"/>
</filter>
<linearGradient id="paint0_linear_907_2230" x1="272.304" y1="401.227" x2="272.304" y2="16.4051" gradientUnits="userSpaceOnUse">
<stop stop-color="#1123A5"/>
<stop offset="0.37" stop-color="#2A3EC7"/>
<stop offset="1" stop-color="#546CFF"/>
</linearGradient>
<linearGradient id="paint1_linear_907_2230" x1="237.583" y1="250.172" x2="306.404" y2="250.172" gradientUnits="userSpaceOnUse">
<stop stop-color="#FF8F00"/>
<stop offset="1" stop-color="#FFBD00"/>
</linearGradient>
<linearGradient id="paint2_linear_907_2230" x1="537.421" y1="384.319" x2="537.421" y2="187.277" gradientUnits="userSpaceOnUse">
<stop stop-color="#6C9CFF"/>
<stop offset="1" stop-color="#A4C4FF"/>
</linearGradient>
<linearGradient id="paint3_linear_907_2230" x1="478.015" y1="345.209" x2="596.857" y2="226.367" gradientUnits="userSpaceOnUse">
<stop stop-color="#AAC8FD"/>
<stop offset="0.86" stop-color="#D4E4FF"/>
</linearGradient>
<linearGradient id="paint4_linear_907_2230" x1="554.241" y1="289.63" x2="554.241" y2="236.582" gradientUnits="userSpaceOnUse">
<stop stop-color="#1123A5"/>
<stop offset="0.37" stop-color="#2A3EC7"/>
<stop offset="1" stop-color="#546CFF"/>
</linearGradient>
<linearGradient id="paint5_linear_907_2230" x1="537.422" y1="220.188" x2="537.422" y2="210.821" gradientUnits="userSpaceOnUse">
<stop stop-color="#FF8F00"/>
<stop offset="1" stop-color="#FFBD00"/>
</linearGradient>
<linearGradient id="paint6_linear_907_2230" x1="537.422" y1="360.775" x2="537.422" y2="351.407" gradientUnits="userSpaceOnUse">
<stop stop-color="#FF8F00"/>
<stop offset="1" stop-color="#FFBD00"/>
</linearGradient>
<linearGradient id="paint7_linear_907_2230" x1="467.128" y1="287.058" x2="467.128" y2="284.538" gradientUnits="userSpaceOnUse">
<stop stop-color="#FF8F00"/>
<stop offset="1" stop-color="#FFBD00"/>
</linearGradient>
<linearGradient id="paint8_linear_907_2230" x1="607.715" y1="287.058" x2="607.715" y2="284.538" gradientUnits="userSpaceOnUse">
<stop stop-color="#FF8F00"/>
<stop offset="1" stop-color="#FFBD00"/>
</linearGradient>
<linearGradient id="paint9_linear_907_2230" x1="487.726" y1="239.776" x2="487.726" y2="232.413" gradientUnits="userSpaceOnUse">
<stop stop-color="#FF8F00"/>
<stop offset="1" stop-color="#FFBD00"/>
</linearGradient>
<linearGradient id="paint10_linear_907_2230" x1="587.134" y1="339.183" x2="587.134" y2="331.82" gradientUnits="userSpaceOnUse">
<stop stop-color="#FF8F00"/>
<stop offset="1" stop-color="#FFBD00"/>
</linearGradient>
<linearGradient id="paint11_linear_907_2230" x1="487.726" y1="339.183" x2="487.726" y2="331.82" gradientUnits="userSpaceOnUse">
<stop stop-color="#FF8F00"/>
<stop offset="1" stop-color="#FFBD00"/>
</linearGradient>
<linearGradient id="paint12_linear_907_2230" x1="587.134" y1="239.776" x2="587.134" y2="232.413" gradientUnits="userSpaceOnUse">
<stop stop-color="#FF8F00"/>
<stop offset="1" stop-color="#FFBD00"/>
</linearGradient>
<linearGradient id="paint13_linear_907_2230" x1="537.422" y1="360.775" x2="537.422" y2="210.821" gradientUnits="userSpaceOnUse">
<stop stop-color="#1123A5"/>
<stop offset="0.37" stop-color="#2A3EC7"/>
<stop offset="1" stop-color="#546CFF"/>
</linearGradient>
<linearGradient id="paint14_linear_907_2230" x1="537.422" y1="360.775" x2="537.422" y2="210.821" gradientUnits="userSpaceOnUse">
<stop stop-color="#1123A5"/>
<stop offset="0.37" stop-color="#2A3EC7"/>
<stop offset="1" stop-color="#546CFF"/>
</linearGradient>
<linearGradient id="paint15_linear_907_2230" x1="537.421" y1="360.776" x2="537.421" y2="210.82" gradientUnits="userSpaceOnUse">
<stop stop-color="#1123A5"/>
<stop offset="0.37" stop-color="#2A3EC7"/>
<stop offset="1" stop-color="#546CFF"/>
</linearGradient>
<linearGradient id="paint16_linear_907_2230" x1="537.421" y1="360.776" x2="537.421" y2="210.82" gradientUnits="userSpaceOnUse">
<stop stop-color="#1123A5"/>
<stop offset="0.37" stop-color="#2A3EC7"/>
<stop offset="1" stop-color="#546CFF"/>
</linearGradient>
<linearGradient id="paint17_linear_907_2230" x1="537.421" y1="360.775" x2="537.421" y2="210.821" gradientUnits="userSpaceOnUse">
<stop stop-color="#1123A5"/>
<stop offset="0.37" stop-color="#2A3EC7"/>
<stop offset="1" stop-color="#546CFF"/>
</linearGradient>
<linearGradient id="paint18_linear_907_2230" x1="537.421" y1="360.775" x2="537.421" y2="210.821" gradientUnits="userSpaceOnUse">
<stop stop-color="#1123A5"/>
<stop offset="0.37" stop-color="#2A3EC7"/>
<stop offset="1" stop-color="#546CFF"/>
</linearGradient>
<linearGradient id="paint19_linear_907_2230" x1="537.421" y1="360.775" x2="537.421" y2="210.821" gradientUnits="userSpaceOnUse">
<stop stop-color="#1123A5"/>
<stop offset="0.37" stop-color="#2A3EC7"/>
<stop offset="1" stop-color="#546CFF"/>
</linearGradient>
<linearGradient id="paint20_linear_907_2230" x1="537.421" y1="360.775" x2="537.421" y2="210.821" gradientUnits="userSpaceOnUse">
<stop stop-color="#1123A5"/>
<stop offset="0.37" stop-color="#2A3EC7"/>
<stop offset="1" stop-color="#546CFF"/>
</linearGradient>
</defs>
</svg>
