<svg width="25" height="24" viewBox="0 0 25 24" fill="none" xmlns="http://www.w3.org/2000/svg">
<g clip-path="url(#clip0_1134_1745)">
<path d="M5.16683 3.99999H15.8335V10.5333H17.1668V3.99999C17.1668 3.64637 17.0264 3.30723 16.7763 3.05718C16.5263 2.80713 16.1871 2.66666 15.8335 2.66666H5.16683C4.81321 2.66666 4.47407 2.80713 4.22402 3.05718C3.97397 3.30723 3.8335 3.64637 3.8335 3.99999V20C3.8335 20.3536 3.97397 20.6928 4.22402 20.9428C4.47407 21.1928 4.81321 21.3333 5.16683 21.3333H15.8335C16.1871 21.3333 16.5263 21.1928 16.7763 20.9428C17.0264 20.6928 17.1668 20.3536 17.1668 20H5.16683V3.99999Z" fill="#303030"/>
<path d="M19.2734 11.52C19.1459 11.4108 18.9818 11.3537 18.8141 11.3602C18.6463 11.3667 18.4871 11.4362 18.3684 11.555C18.2496 11.6737 18.1801 11.8329 18.1736 12.0006C18.1671 12.1684 18.2242 12.3325 18.3334 12.46L20.5868 14.6667H10.9201C10.7433 14.6667 10.5737 14.7369 10.4487 14.8619C10.3237 14.987 10.2534 15.1565 10.2534 15.3333C10.2534 15.5102 10.3237 15.6797 10.4487 15.8048C10.5737 15.9298 10.7433 16 10.9201 16H20.5868L18.3334 18.3067C18.2636 18.3664 18.207 18.44 18.1669 18.5227C18.1269 18.6054 18.1044 18.6955 18.1009 18.7873C18.0973 18.8791 18.1128 18.9707 18.1463 19.0562C18.1798 19.1418 18.2307 19.2195 18.2957 19.2844C18.3606 19.3494 18.4383 19.4003 18.5239 19.4338C18.6094 19.4673 18.701 19.4828 18.7928 19.4792C18.8846 19.4757 18.9747 19.4532 19.0574 19.4132C19.1401 19.3732 19.2137 19.3165 19.2734 19.2467L23.1668 15.38L19.2734 11.52Z" fill="#303030"/>
</g>
<defs>
<clipPath id="clip0_1134_1745">
<rect width="24" height="24" fill="white" transform="translate(0.5)"/>
</clipPath>
</defs>
</svg>
