<svg width="19" height="19" viewBox="0 0 19 19" fill="none" xmlns="http://www.w3.org/2000/svg">
<path d="M14 8.67731C13.2044 8.67731 12.4413 8.34394 11.8787 7.75054C11.3161 7.15714 11 6.35231 11 5.51312V1.29419H3C2.46957 1.29419 1.96086 1.51643 1.58579 1.91204C1.21071 2.30764 1 2.84419 1 3.40365V15.0057C1 15.5652 1.21071 16.1017 1.58579 16.4973C1.96086 16.8929 2.46957 17.1152 3 17.1152H16C16.5304 17.1152 17.0391 16.8929 17.4142 16.4973C17.7893 16.1017 18 15.5652 18 15.0057V8.67731H14ZM12 5.51312C12 6.07258 12.2107 6.60913 12.5858 7.00473C12.9609 7.40033 13.4696 7.62258 14 7.62258H17.59L12 1.72663V5.51312ZM3 0.239456H12L19 7.62258V15.0057C19 15.8449 18.6839 16.6497 18.1213 17.2431C17.5587 17.8365 16.7956 18.1699 16 18.1699H3C2.20435 18.1699 1.44129 17.8365 0.87868 17.2431C0.316071 16.6497 0 15.8449 0 15.0057V3.40365C0 2.56446 0.316071 1.75963 0.87868 1.16623C1.44129 0.572826 2.20435 0.239456 3 0.239456ZM3 4.45838H9V5.51312H3V4.45838ZM3 8.67731H9V9.73205H3V8.67731ZM3 12.8962H16V13.951H3V12.8962Z" fill="#000"/>
</svg>
